<?xml version="1.0" encoding="UTF-8" standalone="no"?><!DOCTYPE svg PUBLIC "-//W3C//DTD SVG 1.1//EN" "http://www.w3.org/Graphics/SVG/1.1/DTD/svg11.dtd"><!-- Generated by graphviz version 2.40.1 (20161225.0304)
 --><!-- Title: G Pages: 1 --><svg xmlns="http://www.w3.org/2000/svg" xmlns:xlink="http://www.w3.org/1999/xlink" width="1012pt" height="404pt" viewBox="0.00 0.00 1011.94 404.00">
<g id="graph0" class="graph" transform="scale(1 1) rotate(0) translate(4 400)">
<title>G</title>
<polygon fill="#ffffff" stroke="transparent" points="-4,4 -4,-400 1007.9367,-400 1007.9367,4 -4,4"/>
<!-- u8 -->
<g id="node1" class="node">
<title>u8</title>
<ellipse fill="none" stroke="#000000" cx="196" cy="-378" rx="27" ry="18"/>
<text text-anchor="middle" x="196" y="-373.8" font-family="Times,serif" font-size="14.00" fill="#000000">u8</text>
</g>
<!-- u8&#45;&gt;u8 -->
<g id="edge1" class="edge">
<title>u8-&gt;u8</title>
<path fill="none" stroke="#000000" d="M215.895,-390.4321C228.688,-393.6753 241,-389.5313 241,-378 241,-369.6218 234.5006,-365.1433 226.0395,-364.5644"/>
<polygon fill="#000000" stroke="#000000" points="225.5019,-361.1004 215.895,-365.5679 226.191,-368.0665 225.5019,-361.1004"/>
</g>
<!-- u16 -->
<g id="node2" class="node">
<title>u16</title>
<ellipse fill="none" stroke="#000000" cx="196" cy="-306" rx="27" ry="18"/>
<text text-anchor="middle" x="196" y="-301.8" font-family="Times,serif" font-size="14.00" fill="#000000">u16</text>
</g>
<!-- u8&#45;&gt;u16 -->
<g id="edge54" class="edge">
<title>u8-&gt;u16</title>
<path fill="none" stroke="#000000" d="M190.0843,-360.2022C189.2798,-352.1807 189.0571,-342.5231 189.4162,-333.5957"/>
<polygon fill="#000000" stroke="#000000" points="192.9097,-333.8099 190.105,-323.593 185.9262,-333.3289 192.9097,-333.8099"/>
</g>
<!-- u32 -->
<g id="node3" class="node">
<title>u32</title>
<ellipse fill="none" stroke="#000000" cx="170" cy="-18" rx="27" ry="18"/>
<text text-anchor="middle" x="170" y="-13.8" font-family="Times,serif" font-size="14.00" fill="#000000">u32</text>
</g>
<!-- u8&#45;&gt;u32 -->
<g id="edge55" class="edge">
<title>u8-&gt;u32</title>
<path fill="none" stroke="#000000" d="M169.9703,-372.5299C116.4299,-358.5761 0,-316.7706 0,-234 0,-234 0,-234 0,-162 0,-92.0383 85.5056,-47.5701 135.3741,-28.5941"/>
<polygon fill="#000000" stroke="#000000" points="136.6439,-31.8565 144.8367,-25.1388 134.2428,-25.2812 136.6439,-31.8565"/>
</g>
<!-- u64 -->
<g id="node4" class="node">
<title>u64</title>
<ellipse fill="none" stroke="#000000" cx="170" cy="-90" rx="27" ry="18"/>
<text text-anchor="middle" x="170" y="-85.8" font-family="Times,serif" font-size="14.00" fill="#000000">u64</text>
</g>
<!-- u8&#45;&gt;u64 -->
<g id="edge56" class="edge">
<title>u8-&gt;u64</title>
<path fill="none" stroke="#000000" d="M176.6591,-364.9531C166.5046,-354.6736 155.7017,-339.5288 151,-324 129.1281,-251.7619 144.231,-161.2583 157.6194,-116.9548"/>
<polygon fill="#000000" stroke="#000000" points="161.0198,-117.8158 160.7863,-107.2235 154.3634,-115.6495 161.0198,-117.8158"/>
</g>
<!-- u128 -->
<g id="node5" class="node">
<title>u128</title>
<ellipse fill="none" stroke="#000000" cx="244" cy="-162" rx="30.2015" ry="18"/>
<text text-anchor="middle" x="244" y="-157.8" font-family="Times,serif" font-size="14.00" fill="#000000">u128</text>
</g>
<!-- u8&#45;&gt;u128 -->
<g id="edge57" class="edge">
<title>u8-&gt;u128</title>
<path fill="none" stroke="#000000" d="M210.5067,-362.5338C221.2162,-352.9677 234.5564,-339.5563 241,-324 259.1737,-280.1248 250.7829,-223.7067 245.5282,-190.3426"/>
<polygon fill="#000000" stroke="#000000" points="248.9712,-189.7054 243.97,-180.3653 242.0551,-190.7856 248.9712,-189.7054"/>
</g>
<!-- usize -->
<g id="node6" class="node">
<title>usize</title>
<ellipse fill="none" stroke="#000000" cx="357" cy="-234" rx="30.7558" ry="18"/>
<text text-anchor="middle" x="357" y="-229.8" font-family="Times,serif" font-size="14.00" fill="#000000">usize</text>
</g>
<!-- u8&#45;&gt;usize -->
<g id="edge64" class="edge">
<title>u8-&gt;usize</title>
<path fill="none" stroke="#000000" d="M220.1927,-369.6784C243.8674,-361.5823 279.2705,-347.075 303,-324 321.1067,-306.3927 333.1142,-279.9685 341.7576,-260.3015"/>
<polygon fill="#000000" stroke="#000000" points="345.0325,-261.5492 345.8637,-250.9871 338.6273,-258.7256 345.0325,-261.5492"/>
</g>
<!-- u16&#45;&gt;u8 -->
<g id="edge2" class="edge">
<title>u16-&gt;u8</title>
<path fill="none" stroke="#000000" d="M201.895,-323.593C202.7094,-331.5865 202.942,-341.2363 202.5928,-350.1759"/>
<polygon fill="#000000" stroke="#000000" points="199.0976,-349.9891 201.9157,-360.2022 206.0817,-350.4608 199.0976,-349.9891"/>
</g>
<!-- u16&#45;&gt;u16 -->
<g id="edge6" class="edge">
<title>u16-&gt;u16</title>
<path fill="none" stroke="#000000" d="M215.895,-318.4321C228.688,-321.6753 241,-317.5313 241,-306 241,-297.6218 234.5006,-293.1433 226.0395,-292.5644"/>
<polygon fill="#000000" stroke="#000000" points="225.5019,-289.1004 215.895,-293.5679 226.191,-296.0665 225.5019,-289.1004"/>
</g>
<!-- u16&#45;&gt;u32 -->
<g id="edge58" class="edge">
<title>u16-&gt;u32</title>
<path fill="none" stroke="#000000" d="M184.0402,-289.715C166.189,-256.375 135.644,-177.6117 125,-108 122.5816,-92.1838 120.3635,-87.3135 125,-72 128.6365,-59.9894 135.9228,-48.2086 143.7359,-38.7309"/>
<polygon fill="#000000" stroke="#000000" points="146.5655,-40.819 150.6591,-31.0469 141.365,-36.1334 146.5655,-40.819"/>
</g>
<!-- u16&#45;&gt;u64 -->
<g id="edge59" class="edge">
<title>u16-&gt;u64</title>
<path fill="none" stroke="#000000" d="M189.9605,-288.3238C181.9704,-250.9193 171.1734,-163.4915 168.6682,-118.2464"/>
<polygon fill="#000000" stroke="#000000" points="172.1637,-118.0636 168.2313,-108.2255 165.1703,-118.3685 172.1637,-118.0636"/>
</g>
<!-- u16&#45;&gt;u128 -->
<g id="edge60" class="edge">
<title>u16-&gt;u128</title>
<path fill="none" stroke="#000000" d="M197.4061,-287.7623C203.2469,-262.7138 218.0835,-217.4961 229.7346,-188.6527"/>
<polygon fill="#000000" stroke="#000000" points="233.0619,-189.7687 233.7029,-179.1933 226.6069,-187.0608 233.0619,-189.7687"/>
</g>
<!-- u16&#45;&gt;usize -->
<g id="edge65" class="edge">
<title>u16-&gt;usize</title>
<path fill="none" stroke="#000000" d="M216.7526,-294.432C243.273,-281.6432 289.1879,-261.0657 321.3187,-247.5372"/>
<polygon fill="#000000" stroke="#000000" points="322.9268,-250.6588 330.811,-243.5814 320.2341,-244.1974 322.9268,-250.6588"/>
</g>
<!-- u32&#45;&gt;u8 -->
<g id="edge3" class="edge">
<title>u32-&gt;u8</title>
<path fill="none" stroke="#000000" d="M147.3915,-28.16C104.8284,-46.8863 18,-91.4992 18,-162 18,-234 18,-234 18,-234 18,-307.5639 109.9691,-348.7691 161.8084,-366.8218"/>
<polygon fill="#000000" stroke="#000000" points="161.0078,-370.2455 171.602,-370.1263 163.2459,-363.6129 161.0078,-370.2455"/>
</g>
<!-- u32&#45;&gt;u16 -->
<g id="edge7" class="edge">
<title>u32-&gt;u16</title>
<path fill="none" stroke="#000000" d="M162.363,-35.5996C155.6215,-45.5407 147.0487,-58.628 143,-72 138.3635,-87.3135 140.5816,-92.1838 143,-108 152.5551,-170.4903 178.1477,-240.3555 190.3985,-278.1151"/>
<polygon fill="#000000" stroke="#000000" points="187.1321,-279.3951 193.4756,-287.881 193.8085,-277.2914 187.1321,-279.3951"/>
</g>
<!-- u32&#45;&gt;u32 -->
<g id="edge10" class="edge">
<title>u32-&gt;u32</title>
<path fill="none" stroke="#000000" d="M189.895,-30.4321C202.688,-33.6753 215,-29.5313 215,-18 215,-9.6218 208.5006,-5.1433 200.0395,-4.5644"/>
<polygon fill="#000000" stroke="#000000" points="199.5019,-1.1004 189.895,-5.5679 200.191,-8.0665 199.5019,-1.1004"/>
</g>
<!-- u32&#45;&gt;u64 -->
<g id="edge61" class="edge">
<title>u32-&gt;u64</title>
<path fill="none" stroke="#000000" d="M175.895,-35.593C176.7094,-43.5865 176.942,-53.2363 176.5928,-62.1759"/>
<polygon fill="#000000" stroke="#000000" points="173.0976,-61.9891 175.9157,-72.2022 180.0817,-62.4608 173.0976,-61.9891"/>
</g>
<!-- u32&#45;&gt;u128 -->
<g id="edge62" class="edge">
<title>u32-&gt;u128</title>
<path fill="none" stroke="#000000" d="M191.8099,-28.7486C206.0836,-38.6094 223.3024,-54.3342 233,-72 243.495,-91.1185 248.4839,-115.3818 249.4977,-133.8971"/>
<polygon fill="#000000" stroke="#000000" points="246.0003,-134.1045 249.6468,-144.052 252.9995,-134.0016 246.0003,-134.1045"/>
</g>
<!-- u32&#45;&gt;usize -->
<g id="edge66" class="edge">
<title>u32-&gt;usize</title>
<path fill="none" stroke="#000000" d="M194.2935,-26.0818C234.289,-42.4372 312.128,-83.1542 348,-144 359.0944,-162.8182 363.4683,-187.2918 363.7557,-205.9669"/>
<polygon fill="#000000" stroke="#000000" points="360.2505,-206.113 363.4727,-216.2059 367.2478,-206.3065 360.2505,-206.113"/>
</g>
<!-- u64&#45;&gt;u8 -->
<g id="edge4" class="edge">
<title>u64-&gt;u8</title>
<path fill="none" stroke="#000000" d="M170.0186,-108.118C164.6007,-148.1149 145.5514,-246.5545 169,-324 171.9733,-333.8201 177.3864,-343.4866 182.7224,-351.8663"/>
<polygon fill="#000000" stroke="#000000" points="179.9292,-353.9879 188.363,-360.4004 185.7689,-350.1281 179.9292,-353.9879"/>
</g>
<!-- u64&#45;&gt;u16 -->
<g id="edge8" class="edge">
<title>u64-&gt;u16</title>
<path fill="none" stroke="#000000" d="M176.0747,-107.8413C184.0571,-145.3177 194.819,-232.4835 197.3278,-277.6825"/>
<polygon fill="#000000" stroke="#000000" points="193.8433,-278.1168 197.7739,-287.9555 200.8367,-277.813 193.8433,-278.1168"/>
</g>
<!-- u64&#45;&gt;u32 -->
<g id="edge11" class="edge">
<title>u64-&gt;u32</title>
<path fill="none" stroke="#000000" d="M164.0843,-72.2022C163.2798,-64.1807 163.0571,-54.5231 163.4162,-45.5957"/>
<polygon fill="#000000" stroke="#000000" points="166.9097,-45.8099 164.105,-35.593 159.9262,-45.3289 166.9097,-45.8099"/>
</g>
<!-- u64&#45;&gt;u64 -->
<g id="edge13" class="edge">
<title>u64-&gt;u64</title>
<path fill="none" stroke="#000000" d="M189.895,-102.4321C202.688,-105.6753 215,-101.5313 215,-90 215,-81.6218 208.5006,-77.1433 200.0395,-76.5644"/>
<polygon fill="#000000" stroke="#000000" points="199.5019,-73.1004 189.895,-77.5679 200.191,-80.0665 199.5019,-73.1004"/>
</g>
<!-- u64&#45;&gt;u128 -->
<g id="edge63" class="edge">
<title>u64-&gt;u128</title>
<path fill="none" stroke="#000000" d="M188.7165,-103.0178C200.112,-112.7373 214.4057,-126.2977 225.7052,-137.9658"/>
<polygon fill="#000000" stroke="#000000" points="223.2251,-140.4372 232.6377,-145.3008 228.3125,-135.629 223.2251,-140.4372"/>
</g>
<!-- u64&#45;&gt;usize -->
<g id="edge20" class="edge">
<title>u64-&gt;usize</title>
<path fill="none" stroke="#000000" d="M196.258,-94.2152C226.8677,-100.8203 276.7707,-115.8637 310,-144 329.8531,-160.8103 344.8559,-186.4975 352.7963,-206.1327"/>
<polygon fill="#000000" stroke="#000000" points="349.592,-207.5634 356.2931,-215.7699 356.1723,-205.1758 349.592,-207.5634"/>
</g>
<!-- u128&#45;&gt;u8 -->
<g id="edge5" class="edge">
<title>u128-&gt;u8</title>
<path fill="none" stroke="#000000" d="M254.5791,-179.3826C266.3847,-209.9768 279.356,-274.8564 259,-324 252.6321,-339.3735 239.5287,-352.6522 226.7642,-362.195"/>
<polygon fill="#000000" stroke="#000000" points="224.7331,-359.3442 218.4992,-367.911 228.7147,-365.1015 224.7331,-359.3442"/>
</g>
<!-- u128&#45;&gt;u16 -->
<g id="edge9" class="edge">
<title>u128-&gt;u16</title>
<path fill="none" stroke="#000000" d="M242.6385,-180.0464C236.8025,-205.1686 221.8112,-250.8416 210.107,-279.739"/>
<polygon fill="#000000" stroke="#000000" points="206.7785,-278.6249 206.1245,-289.1995 213.2302,-281.3408 206.7785,-278.6249"/>
</g>
<!-- u128&#45;&gt;u32 -->
<g id="edge12" class="edge">
<title>u128-&gt;u32</title>
<path fill="none" stroke="#000000" d="M236.3679,-144.3994C232.2871,-125.4752 227.6318,-95.011 215,-72 208.6838,-60.494 199.177,-49.8113 190.4125,-41.036"/>
<polygon fill="#000000" stroke="#000000" points="192.614,-38.2953 183.0002,-33.8426 187.7389,-43.3187 192.614,-38.2953"/>
</g>
<!-- u128&#45;&gt;u64 -->
<g id="edge14" class="edge">
<title>u128-&gt;u64</title>
<path fill="none" stroke="#000000" d="M224.274,-148.1177C213.0756,-138.4891 199.3197,-125.4141 188.3624,-114.104"/>
<polygon fill="#000000" stroke="#000000" points="190.7019,-111.4839 181.2895,-106.62 185.6144,-116.2919 190.7019,-111.4839"/>
</g>
<!-- u128&#45;&gt;u128 -->
<g id="edge15" class="edge">
<title>u128-&gt;u128</title>
<path fill="none" stroke="#000000" d="M265.8789,-174.5475C279.4424,-177.5731 292.3504,-173.3906 292.3504,-162 292.3504,-153.546 285.2401,-149.0626 276.0288,-148.5497"/>
<polygon fill="#000000" stroke="#000000" points="275.5295,-145.0802 265.8789,-149.4525 276.1497,-152.0527 275.5295,-145.0802"/>
</g>
<!-- u128&#45;&gt;usize -->
<g id="edge21" class="edge">
<title>u128-&gt;usize</title>
<path fill="none" stroke="#000000" d="M267.2962,-173.583C285.8591,-184.3029 311.6078,-200.4861 330.8468,-213.4062"/>
<polygon fill="#000000" stroke="#000000" points="328.9438,-216.3448 339.1791,-219.0816 332.8844,-210.5593 328.9438,-216.3448"/>
</g>
<!-- usize&#45;&gt;u8 -->
<g id="edge17" class="edge">
<title>usize-&gt;u8</title>
<path fill="none" stroke="#000000" d="M358.4801,-252.0535C354.5392,-271.9427 341.7901,-303.7833 321,-324 296.4618,-347.8614 259.4407,-362.5612 231.8895,-370.4839"/>
<polygon fill="#000000" stroke="#000000" points="230.9485,-367.1125 222.2081,-373.1006 232.775,-373.8701 230.9485,-367.1125"/>
</g>
<!-- usize&#45;&gt;u16 -->
<g id="edge18" class="edge">
<title>usize-&gt;u16</title>
<path fill="none" stroke="#000000" d="M334.3962,-246.4583C306.9389,-259.6277 260.756,-280.2824 229.2682,-293.4765"/>
<polygon fill="#000000" stroke="#000000" points="227.9032,-290.2534 220.0049,-297.3151 230.583,-296.7202 227.9032,-290.2534"/>
</g>
<!-- usize&#45;&gt;u32 -->
<g id="edge19" class="edge">
<title>usize-&gt;u32</title>
<path fill="none" stroke="#000000" d="M350.2051,-216.2059C346.9263,-197.1162 343.2718,-166.5115 330,-144 299.0723,-91.5407 236.9491,-54.0438 199.7224,-34.2221"/>
<polygon fill="#000000" stroke="#000000" points="201.3111,-31.1032 190.8285,-29.5651 198.064,-37.3045 201.3111,-31.1032"/>
</g>
<!-- usize&#45;&gt;u64 -->
<g id="edge67" class="edge">
<title>usize-&gt;u64</title>
<path fill="none" stroke="#000000" d="M344.2038,-217.5483C332.9343,-197.6602 316.016,-164.3351 292,-144 266.4767,-122.3886 231.1164,-108.5017 204.9136,-100.2299"/>
<polygon fill="#000000" stroke="#000000" points="205.5927,-96.7786 195.0074,-97.2277 203.5625,-103.4777 205.5927,-96.7786"/>
</g>
<!-- usize&#45;&gt;u128 -->
<g id="edge68" class="edge">
<title>usize-&gt;u128</title>
<path fill="none" stroke="#000000" d="M333.4524,-222.2717C314.8037,-211.4904 289.0146,-195.2727 269.8276,-182.375"/>
<polygon fill="#000000" stroke="#000000" points="271.7598,-179.4563 261.526,-176.7141 267.8161,-185.2397 271.7598,-179.4563"/>
</g>
<!-- usize&#45;&gt;usize -->
<g id="edge16" class="edge">
<title>usize-&gt;usize</title>
<path fill="none" stroke="#000000" d="M379.3713,-246.6027C392.9895,-249.5212 405.8777,-245.3203 405.8777,-234 405.8777,-225.5982 398.7783,-221.1181 389.5502,-220.5596"/>
<polygon fill="#000000" stroke="#000000" points="389.0506,-217.0888 379.3713,-221.3973 389.6247,-224.0653 389.0506,-217.0888"/>
</g>
<!-- i8 -->
<g id="node7" class="node">
<title>i8</title>
<ellipse fill="none" stroke="#000000" cx="630" cy="-378" rx="27" ry="18"/>
<text text-anchor="middle" x="630" y="-373.8" font-family="Times,serif" font-size="14.00" fill="#000000">i8</text>
</g>
<!-- i8&#45;&gt;i8 -->
<g id="edge22" class="edge">
<title>i8-&gt;i8</title>
<path fill="none" stroke="#000000" d="M649.895,-390.4321C662.688,-393.6753 675,-389.5313 675,-378 675,-369.6218 668.5006,-365.1433 660.0395,-364.5644"/>
<polygon fill="#000000" stroke="#000000" points="659.5019,-361.1004 649.895,-365.5679 660.191,-368.0665 659.5019,-361.1004"/>
</g>
<!-- i16 -->
<g id="node8" class="node">
<title>i16</title>
<ellipse fill="none" stroke="#000000" cx="630" cy="-306" rx="27" ry="18"/>
<text text-anchor="middle" x="630" y="-301.8" font-family="Times,serif" font-size="14.00" fill="#000000">i16</text>
</g>
<!-- i8&#45;&gt;i16 -->
<g id="edge69" class="edge">
<title>i8-&gt;i16</title>
<path fill="none" stroke="#000000" d="M624.0843,-360.2022C623.2798,-352.1807 623.0571,-342.5231 623.4162,-333.5957"/>
<polygon fill="#000000" stroke="#000000" points="626.9097,-333.8099 624.105,-323.593 619.9262,-333.3289 626.9097,-333.8099"/>
</g>
<!-- i32 -->
<g id="node9" class="node">
<title>i32</title>
<ellipse fill="none" stroke="#000000" cx="602" cy="-18" rx="27" ry="18"/>
<text text-anchor="middle" x="602" y="-13.8" font-family="Times,serif" font-size="14.00" fill="#000000">i32</text>
</g>
<!-- i8&#45;&gt;i32 -->
<g id="edge70" class="edge">
<title>i8-&gt;i32</title>
<path fill="none" stroke="#000000" d="M603.9703,-372.5299C550.4299,-358.5761 434,-316.7706 434,-234 434,-234 434,-234 434,-162 434,-92.6646 518.092,-48.0176 567.4272,-28.8203"/>
<polygon fill="#000000" stroke="#000000" points="568.9443,-31.99 577.09,-25.2152 566.4974,-25.4315 568.9443,-31.99"/>
</g>
<!-- i64 -->
<g id="node10" class="node">
<title>i64</title>
<ellipse fill="none" stroke="#000000" cx="602" cy="-90" rx="27" ry="18"/>
<text text-anchor="middle" x="602" y="-85.8" font-family="Times,serif" font-size="14.00" fill="#000000">i64</text>
</g>
<!-- i8&#45;&gt;i64 -->
<g id="edge71" class="edge">
<title>i8-&gt;i64</title>
<path fill="none" stroke="#000000" d="M610.6591,-364.9531C600.5046,-354.6736 589.7017,-339.5288 585,-324 563.1353,-251.7857 577.1835,-161.2713 589.9914,-116.9602"/>
<polygon fill="#000000" stroke="#000000" points="593.3908,-117.8158 593.0287,-107.2271 586.7086,-115.7305 593.3908,-117.8158"/>
</g>
<!-- i128 -->
<g id="node11" class="node">
<title>i128</title>
<ellipse fill="none" stroke="#000000" cx="676" cy="-162" rx="28.4127" ry="18"/>
<text text-anchor="middle" x="676" y="-157.8" font-family="Times,serif" font-size="14.00" fill="#000000">i128</text>
</g>
<!-- i8&#45;&gt;i128 -->
<g id="edge72" class="edge">
<title>i8-&gt;i128</title>
<path fill="none" stroke="#000000" d="M644.5067,-362.5338C655.2162,-352.9677 668.5564,-339.5563 675,-324 693.1834,-280.1014 683.9205,-223.6908 678.0703,-190.3344"/>
<polygon fill="#000000" stroke="#000000" points="681.4967,-189.6092 676.3299,-180.3596 674.6009,-190.8124 681.4967,-189.6092"/>
</g>
<!-- isize -->
<g id="node12" class="node">
<title>isize</title>
<ellipse fill="none" stroke="#000000" cx="789" cy="-234" rx="28.9676" ry="18"/>
<text text-anchor="middle" x="789" y="-229.8" font-family="Times,serif" font-size="14.00" fill="#000000">isize</text>
</g>
<!-- i8&#45;&gt;isize -->
<g id="edge79" class="edge">
<title>i8-&gt;isize</title>
<path fill="none" stroke="#000000" d="M654.3016,-369.7894C678.0412,-361.7594 713.4784,-347.2869 737,-324 754.7914,-306.3862 766.2019,-279.9628 774.3853,-260.2978"/>
<polygon fill="#000000" stroke="#000000" points="777.6506,-261.561 778.272,-250.9844 771.1906,-258.8651 777.6506,-261.561"/>
</g>
<!-- i16&#45;&gt;i8 -->
<g id="edge23" class="edge">
<title>i16-&gt;i8</title>
<path fill="none" stroke="#000000" d="M635.895,-323.593C636.7094,-331.5865 636.942,-341.2363 636.5928,-350.1759"/>
<polygon fill="#000000" stroke="#000000" points="633.0976,-349.9891 635.9157,-360.2022 640.0817,-350.4608 633.0976,-349.9891"/>
</g>
<!-- i16&#45;&gt;i16 -->
<g id="edge27" class="edge">
<title>i16-&gt;i16</title>
<path fill="none" stroke="#000000" d="M649.895,-318.4321C662.688,-321.6753 675,-317.5313 675,-306 675,-297.6218 668.5006,-293.1433 660.0395,-292.5644"/>
<polygon fill="#000000" stroke="#000000" points="659.5019,-289.1004 649.895,-293.5679 660.191,-296.0665 659.5019,-289.1004"/>
</g>
<!-- i16&#45;&gt;i32 -->
<g id="edge73" class="edge">
<title>i16-&gt;i32</title>
<path fill="none" stroke="#000000" d="M617.8167,-289.7408C599.5214,-256.4476 567.9952,-177.7655 557,-108 554.5091,-92.1951 552.3635,-87.3135 557,-72 560.6365,-59.9894 567.9228,-48.2086 575.7359,-38.7309"/>
<polygon fill="#000000" stroke="#000000" points="578.5655,-40.819 582.6591,-31.0469 573.365,-36.1334 578.5655,-40.819"/>
</g>
<!-- i16&#45;&gt;i64 -->
<g id="edge74" class="edge">
<title>i16-&gt;i64</title>
<path fill="none" stroke="#000000" d="M623.7968,-288.3238C615.4604,-250.9193 603.8539,-163.4915 600.9298,-118.2464"/>
<polygon fill="#000000" stroke="#000000" points="604.4232,-118.0268 600.4001,-108.2255 597.4329,-118.3964 604.4232,-118.0268"/>
</g>
<!-- i16&#45;&gt;i128 -->
<g id="edge75" class="edge">
<title>i16-&gt;i128</title>
<path fill="none" stroke="#000000" d="M631.1528,-287.7623C636.6457,-262.7138 650.8543,-217.4961 662.1048,-188.6527"/>
<polygon fill="#000000" stroke="#000000" points="665.4262,-189.7756 665.9417,-179.1933 658.9395,-187.1444 665.4262,-189.7756"/>
</g>
<!-- i16&#45;&gt;isize -->
<g id="edge80" class="edge">
<title>i16-&gt;isize</title>
<path fill="none" stroke="#000000" d="M650.7593,-294.2717C677.2367,-281.3436 722.9775,-260.5986 754.6411,-247.1344"/>
<polygon fill="#000000" stroke="#000000" points="756.1184,-250.3101 763.9788,-243.2063 753.404,-243.8577 756.1184,-250.3101"/>
</g>
<!-- i32&#45;&gt;i8 -->
<g id="edge24" class="edge">
<title>i32-&gt;i8</title>
<path fill="none" stroke="#000000" d="M579.7398,-28.2627C537.7498,-47.1441 452,-91.9844 452,-162 452,-234 452,-234 452,-234 452,-307.5639 543.9691,-348.7691 595.8084,-366.8218"/>
<polygon fill="#000000" stroke="#000000" points="595.0078,-370.2455 605.602,-370.1263 597.2459,-363.6129 595.0078,-370.2455"/>
</g>
<!-- i32&#45;&gt;i16 -->
<g id="edge28" class="edge">
<title>i32-&gt;i16</title>
<path fill="none" stroke="#000000" d="M594.363,-35.5996C587.6215,-45.5407 579.0487,-58.628 575,-72 570.3635,-87.3135 572.5091,-92.1951 575,-108 584.8703,-170.6283 611.2859,-240.4423 624.0231,-278.156"/>
<polygon fill="#000000" stroke="#000000" points="620.7811,-279.5016 627.2278,-287.9093 627.4313,-277.3165 620.7811,-279.5016"/>
</g>
<!-- i32&#45;&gt;i32 -->
<g id="edge31" class="edge">
<title>i32-&gt;i32</title>
<path fill="none" stroke="#000000" d="M621.895,-30.4321C634.688,-33.6753 647,-29.5313 647,-18 647,-9.6218 640.5006,-5.1433 632.0395,-4.5644"/>
<polygon fill="#000000" stroke="#000000" points="631.5019,-1.1004 621.895,-5.5679 632.191,-8.0665 631.5019,-1.1004"/>
</g>
<!-- i32&#45;&gt;i64 -->
<g id="edge76" class="edge">
<title>i32-&gt;i64</title>
<path fill="none" stroke="#000000" d="M607.895,-35.593C608.7094,-43.5865 608.942,-53.2363 608.5928,-62.1759"/>
<polygon fill="#000000" stroke="#000000" points="605.0976,-61.9891 607.9157,-72.2022 612.0817,-62.4608 605.0976,-61.9891"/>
</g>
<!-- i32&#45;&gt;i128 -->
<g id="edge77" class="edge">
<title>i32-&gt;i128</title>
<path fill="none" stroke="#000000" d="M623.8099,-28.7486C638.0836,-38.6094 655.3024,-54.3342 665,-72 675.495,-91.1185 680.4839,-115.3818 681.4977,-133.8971"/>
<polygon fill="#000000" stroke="#000000" points="678.0003,-134.1045 681.6468,-144.052 684.9995,-134.0016 678.0003,-134.1045"/>
</g>
<!-- i32&#45;&gt;isize -->
<g id="edge81" class="edge">
<title>i32-&gt;isize</title>
<path fill="none" stroke="#000000" d="M626.1399,-26.1395C665.8526,-42.5935 743.1184,-83.4716 779,-144 790.1641,-162.8326 794.8198,-187.3053 795.3541,-205.9763"/>
<polygon fill="#000000" stroke="#000000" points="791.8512,-206.1644 795.2104,-216.2126 798.8505,-206.2627 791.8512,-206.1644"/>
</g>
<!-- i64&#45;&gt;i8 -->
<g id="edge25" class="edge">
<title>i64-&gt;i8</title>
<path fill="none" stroke="#000000" d="M602.273,-108.1218C597.3956,-148.1262 579.5591,-246.5799 603,-324 605.9733,-333.8201 611.3864,-343.4866 616.7224,-351.8663"/>
<polygon fill="#000000" stroke="#000000" points="613.9292,-353.9879 622.363,-360.4004 619.7689,-350.1281 613.9292,-353.9879"/>
</g>
<!-- i64&#45;&gt;i16 -->
<g id="edge29" class="edge">
<title>i64-&gt;i16</title>
<path fill="none" stroke="#000000" d="M608.1727,-107.5396C616.5228,-144.9192 628.1748,-232.6961 631.0823,-277.9416"/>
<polygon fill="#000000" stroke="#000000" points="627.5885,-278.1523 631.6068,-287.9555 634.5789,-277.7861 627.5885,-278.1523"/>
</g>
<!-- i64&#45;&gt;i32 -->
<g id="edge32" class="edge">
<title>i64-&gt;i32</title>
<path fill="none" stroke="#000000" d="M596.0843,-72.2022C595.2798,-64.1807 595.0571,-54.5231 595.4162,-45.5957"/>
<polygon fill="#000000" stroke="#000000" points="598.9097,-45.8099 596.105,-35.593 591.9262,-45.3289 598.9097,-45.8099"/>
</g>
<!-- i64&#45;&gt;i64 -->
<g id="edge34" class="edge">
<title>i64-&gt;i64</title>
<path fill="none" stroke="#000000" d="M621.895,-102.4321C634.688,-105.6753 647,-101.5313 647,-90 647,-81.6218 640.5006,-77.1433 632.0395,-76.5644"/>
<polygon fill="#000000" stroke="#000000" points="631.5019,-73.1004 621.895,-77.5679 632.191,-80.0665 631.5019,-73.1004"/>
</g>
<!-- i64&#45;&gt;i128 -->
<g id="edge78" class="edge">
<title>i64-&gt;i128</title>
<path fill="none" stroke="#000000" d="M620.7165,-103.0178C632.112,-112.7373 646.4057,-126.2977 657.7052,-137.9658"/>
<polygon fill="#000000" stroke="#000000" points="655.2251,-140.4372 664.6377,-145.3008 660.3125,-135.629 655.2251,-140.4372"/>
</g>
<!-- i64&#45;&gt;isize -->
<g id="edge41" class="edge">
<title>i64-&gt;isize</title>
<path fill="none" stroke="#000000" d="M628.3989,-94.4846C658.556,-101.325 707.2459,-116.5575 740,-144 760.234,-160.9528 775.867,-186.7916 784.241,-206.4414"/>
<polygon fill="#000000" stroke="#000000" points="780.986,-207.7284 787.8509,-215.7982 787.5168,-205.2087 780.986,-207.7284"/>
</g>
<!-- i128&#45;&gt;i8 -->
<g id="edge26" class="edge">
<title>i128-&gt;i8</title>
<path fill="none" stroke="#000000" d="M686.7242,-178.8946C699.1505,-209.2762 713.4746,-274.57 693,-324 686.6321,-339.3735 673.5287,-352.6522 660.7642,-362.195"/>
<polygon fill="#000000" stroke="#000000" points="658.7331,-359.3442 652.4992,-367.911 662.7147,-365.1015 658.7331,-359.3442"/>
</g>
<!-- i128&#45;&gt;i16 -->
<g id="edge30" class="edge">
<title>i128-&gt;i16</title>
<path fill="none" stroke="#000000" d="M674.8891,-180.0464C669.402,-205.1686 655.0451,-250.8416 643.7422,-279.739"/>
<polygon fill="#000000" stroke="#000000" points="640.4198,-278.6179 639.8912,-289.1995 646.9032,-281.2571 640.4198,-278.6179"/>
</g>
<!-- i128&#45;&gt;i32 -->
<g id="edge33" class="edge">
<title>i128-&gt;i32</title>
<path fill="none" stroke="#000000" d="M668.3679,-144.3994C664.2871,-125.4752 659.6318,-95.011 647,-72 640.6838,-60.494 631.177,-49.8113 622.4125,-41.036"/>
<polygon fill="#000000" stroke="#000000" points="624.614,-38.2953 615.0002,-33.8426 619.7389,-43.3187 624.614,-38.2953"/>
</g>
<!-- i128&#45;&gt;i64 -->
<g id="edge35" class="edge">
<title>i128-&gt;i64</title>
<path fill="none" stroke="#000000" d="M656.6697,-148.4574C645.3947,-138.7928 631.4336,-125.533 620.344,-114.085"/>
<polygon fill="#000000" stroke="#000000" points="622.6049,-111.3815 613.1936,-106.5154 617.5162,-116.1884 622.6049,-111.3815"/>
</g>
<!-- i128&#45;&gt;i128 -->
<g id="edge36" class="edge">
<title>i128-&gt;i128</title>
<path fill="none" stroke="#000000" d="M696.428,-174.4321C709.5637,-177.6753 722.2056,-173.5313 722.2056,-162 722.2056,-153.5317 715.3878,-149.0474 706.5633,-148.5471"/>
<polygon fill="#000000" stroke="#000000" points="706.027,-145.0833 696.428,-149.5679 706.7285,-152.0481 706.027,-145.0833"/>
</g>
<!-- i128&#45;&gt;isize -->
<g id="edge42" class="edge">
<title>i128-&gt;isize</title>
<path fill="none" stroke="#000000" d="M698.3208,-173.021C717.0638,-183.7972 743.5937,-200.4625 763.2086,-213.6493"/>
<polygon fill="#000000" stroke="#000000" points="761.4482,-216.6853 771.6814,-219.4297 765.3932,-210.9028 761.4482,-216.6853"/>
</g>
<!-- isize&#45;&gt;i8 -->
<g id="edge38" class="edge">
<title>isize-&gt;i8</title>
<path fill="none" stroke="#000000" d="M790.9136,-252.0507C787.4437,-271.9374 775.4281,-303.7758 755,-324 730.6768,-348.0805 693.6119,-362.7357 665.9917,-370.5881"/>
<polygon fill="#000000" stroke="#000000" points="665.0439,-367.2184 656.2842,-373.1781 666.8485,-373.9818 665.0439,-367.2184"/>
</g>
<!-- isize&#45;&gt;i16 -->
<g id="edge39" class="edge">
<title>isize-&gt;i16</title>
<path fill="none" stroke="#000000" d="M767.5306,-246.0746C740.5673,-259.2117 694.4293,-280.1156 663.0058,-293.4402"/>
<polygon fill="#000000" stroke="#000000" points="661.6325,-290.2207 653.7636,-297.3151 664.3392,-296.6763 661.6325,-290.2207"/>
</g>
<!-- isize&#45;&gt;i32 -->
<g id="edge40" class="edge">
<title>isize-&gt;i32</title>
<path fill="none" stroke="#000000" d="M781.9428,-216.2126C778.3966,-197.1286 774.3552,-166.5288 761,-144 730.1951,-92.0355 668.8881,-54.5541 631.9083,-34.5767"/>
<polygon fill="#000000" stroke="#000000" points="633.0901,-31.2414 622.6166,-29.6426 629.807,-37.4238 633.0901,-31.2414"/>
</g>
<!-- isize&#45;&gt;i64 -->
<g id="edge82" class="edge">
<title>isize-&gt;i64</title>
<path fill="none" stroke="#000000" d="M776.0097,-217.9214C764.2652,-198.1024 746.5075,-164.5332 722,-144 696.7809,-122.8705 662.1146,-108.9795 636.4041,-100.5843"/>
<polygon fill="#000000" stroke="#000000" points="637.2713,-97.1881 626.6819,-97.5275 635.1717,-103.8658 637.2713,-97.1881"/>
</g>
<!-- isize&#45;&gt;i128 -->
<g id="edge83" class="edge">
<title>isize-&gt;i128</title>
<path fill="none" stroke="#000000" d="M766.2813,-222.75C747.465,-211.9118 720.995,-195.2729 701.489,-182.1473"/>
<polygon fill="#000000" stroke="#000000" points="703.3013,-179.1466 693.0694,-176.3972 699.3535,-184.9272 703.3013,-179.1466"/>
</g>
<!-- isize&#45;&gt;isize -->
<g id="edge37" class="edge">
<title>isize-&gt;isize</title>
<path fill="none" stroke="#000000" d="M810.147,-246.5475C823.2567,-249.5731 835.7329,-245.3906 835.7329,-234 835.7329,-225.635 829.0044,-221.1574 820.2377,-220.5672"/>
<polygon fill="#000000" stroke="#000000" points="819.8028,-217.0918 810.147,-221.4525 820.4146,-224.065 819.8028,-217.0918"/>
</g>
<!-- f16 -->
<g id="node13" class="node">
<title>f16</title>
<ellipse fill="none" stroke="#000000" cx="918" cy="-378" rx="27" ry="18"/>
<text text-anchor="middle" x="918" y="-373.8" font-family="Times,serif" font-size="14.00" fill="#000000">f16</text>
</g>
<!-- f16&#45;&gt;f16 -->
<g id="edge43" class="edge">
<title>f16-&gt;f16</title>
<path fill="none" stroke="#000000" d="M937.895,-390.4321C950.688,-393.6753 963,-389.5313 963,-378 963,-369.6218 956.5006,-365.1433 948.0395,-364.5644"/>
<polygon fill="#000000" stroke="#000000" points="947.5019,-361.1004 937.895,-365.5679 948.191,-368.0665 947.5019,-361.1004"/>
</g>
<!-- bf16 -->
<g id="node14" class="node">
<title>bf16</title>
<ellipse fill="none" stroke="#000000" cx="876" cy="-306" rx="28.9754" ry="18"/>
<text text-anchor="middle" x="876" y="-301.8" font-family="Times,serif" font-size="14.00" fill="#000000">bf16</text>
</g>
<!-- f16&#45;&gt;bf16 -->
<g id="edge48" class="edge">
<title>f16-&gt;bf16</title>
<path fill="none" stroke="#000000" d="M896.25,-366.75C886.4756,-357.7275 877.3712,-344.6849 872.0714,-332.9958"/>
<polygon fill="#000000" stroke="#000000" points="875.3485,-331.7667 868.5831,-323.6132 868.7873,-334.2061 875.3485,-331.7667"/>
</g>
<!-- f16&#45;&gt;bf16 -->
<g id="edge84" class="edge">
<title>f16-&gt;bf16</title>
<path fill="none" stroke="#000000" d="M913.5337,-360.2022C909.1598,-351.1475 902.8285,-340.0078 896.5253,-330.1872"/>
<polygon fill="#000000" stroke="#000000" points="899.2728,-327.9998 890.8015,-321.6368 893.4559,-331.8938 899.2728,-327.9998"/>
</g>
<!-- f32 -->
<g id="node15" class="node">
<title>f32</title>
<ellipse fill="none" stroke="#000000" cx="937" cy="-162" rx="27" ry="18"/>
<text text-anchor="middle" x="937" y="-157.8" font-family="Times,serif" font-size="14.00" fill="#000000">f32</text>
</g>
<!-- f16&#45;&gt;f32 -->
<g id="edge85" class="edge">
<title>f16-&gt;f32</title>
<path fill="none" stroke="#000000" d="M926.5347,-360.7107C942.1098,-337.7066 972.3749,-294.9233 982,-252 985.5009,-236.3877 988.1229,-230.7821 982,-216 977.0163,-203.9682 967.9069,-193.2195 959.0801,-184.5405"/>
<polygon fill="#000000" stroke="#000000" points="961.2037,-181.7347 951.5067,-177.4662 956.4253,-186.8501 961.2037,-181.7347"/>
</g>
<!-- f64 -->
<g id="node16" class="node">
<title>f64</title>
<ellipse fill="none" stroke="#000000" cx="937" cy="-234" rx="27" ry="18"/>
<text text-anchor="middle" x="937" y="-229.8" font-family="Times,serif" font-size="14.00" fill="#000000">f64</text>
</g>
<!-- f16&#45;&gt;f64 -->
<g id="edge86" class="edge">
<title>f16-&gt;f64</title>
<path fill="none" stroke="#000000" d="M915.7836,-359.6952C917.7002,-349.3273 921.1211,-336.0575 923,-324 926.2277,-303.2869 927.4466,-279.6079 929.1646,-261.7384"/>
<polygon fill="#000000" stroke="#000000" points="932.6542,-262.0254 930.2868,-251.6985 925.6975,-261.2478 932.6542,-262.0254"/>
</g>
<!-- bf16&#45;&gt;f16 -->
<g id="edge44" class="edge">
<title>bf16-&gt;f16</title>
<path fill="none" stroke="#000000" d="M880.4607,-323.7862C884.9268,-333.0336 891.4362,-344.4578 897.8726,-354.431"/>
<polygon fill="#000000" stroke="#000000" points="894.9706,-356.3877 903.4569,-362.7307 900.7784,-352.48 894.9706,-356.3877"/>
</g>
<!-- bf16&#45;&gt;f16 -->
<g id="edge87" class="edge">
<title>bf16-&gt;f16</title>
<path fill="none" stroke="#000000" d="M898.178,-317.6481C907.7685,-326.6336 916.667,-339.4294 921.8941,-350.9281"/>
<polygon fill="#000000" stroke="#000000" points="918.7107,-352.4103 925.4677,-360.5708 925.2745,-349.9777 918.7107,-352.4103"/>
</g>
<!-- bf16&#45;&gt;bf16 -->
<g id="edge47" class="edge">
<title>bf16-&gt;bf16</title>
<path fill="none" stroke="#000000" d="M897.1487,-318.5475C910.2595,-321.5731 922.7367,-317.3906 922.7367,-306 922.7367,-297.635 916.0077,-293.1574 907.2403,-292.5672"/>
<polygon fill="#000000" stroke="#000000" points="906.8046,-289.0919 897.1487,-293.4525 907.4164,-296.0651 906.8046,-289.0919"/>
</g>
<!-- bf16&#45;&gt;f32 -->
<g id="edge88" class="edge">
<title>bf16-&gt;f32</title>
<path fill="none" stroke="#000000" d="M872.5205,-287.8236C874.0432,-269.2149 881.1285,-239.7377 892,-216 897.2253,-204.5906 904.7179,-192.8879 912.2571,-183.3065"/>
<polygon fill="#000000" stroke="#000000" points="915.073,-185.3963 918.8386,-175.4933 909.7192,-180.8866 915.073,-185.3963"/>
</g>
<!-- bf16&#45;&gt;f64 -->
<g id="edge89" class="edge">
<title>bf16-&gt;f64</title>
<path fill="none" stroke="#000000" d="M884.8882,-288.5708C892.3636,-278.5239 903.0148,-265.8195 912.8263,-255.1973"/>
<polygon fill="#000000" stroke="#000000" points="915.4117,-257.5576 919.7649,-247.8983 910.3383,-252.7346 915.4117,-257.5576"/>
</g>
<!-- f32&#45;&gt;f16 -->
<g id="edge45" class="edge">
<title>f32-&gt;f16</title>
<path fill="none" stroke="#000000" d="M959.4992,-172.089C974.465,-181.6309 992.2372,-197.259 1000,-216 1006.1229,-230.7821 1003.5009,-236.3877 1000,-252 990.9052,-292.5586 963.3818,-332.9922 942.4683,-356.7319"/>
<polygon fill="#000000" stroke="#000000" points="939.8652,-354.3919 935.6655,-364.1188 945.0143,-359.1339 939.8652,-354.3919"/>
</g>
<!-- f32&#45;&gt;bf16 -->
<g id="edge49" class="edge">
<title>f32-&gt;bf16</title>
<path fill="none" stroke="#000000" d="M931.0783,-179.6472C924.7248,-189.8093 915.9115,-203.0924 910,-216 900.6995,-236.3074 894.17,-260.8154 888.7204,-279.1256"/>
<polygon fill="#000000" stroke="#000000" points="885.3231,-278.2646 885.7087,-288.8524 892.0099,-280.335 885.3231,-278.2646"/>
</g>
<!-- f32&#45;&gt;f32 -->
<g id="edge51" class="edge">
<title>f32-&gt;f32</title>
<path fill="none" stroke="#000000" d="M956.895,-174.4321C969.688,-177.6753 982,-173.5313 982,-162 982,-153.6218 975.5006,-149.1433 967.0395,-148.5644"/>
<polygon fill="#000000" stroke="#000000" points="966.5019,-145.1004 956.895,-149.5679 967.191,-152.0665 966.5019,-145.1004"/>
</g>
<!-- f32&#45;&gt;f64 -->
<g id="edge90" class="edge">
<title>f32-&gt;f64</title>
<path fill="none" stroke="#000000" d="M942.895,-179.593C943.7094,-187.5865 943.942,-197.2363 943.5928,-206.1759"/>
<polygon fill="#000000" stroke="#000000" points="940.0976,-205.9891 942.9157,-216.2022 947.0817,-206.4608 940.0976,-205.9891"/>
</g>
<!-- f64&#45;&gt;f16 -->
<g id="edge46" class="edge">
<title>f64-&gt;f16</title>
<path fill="none" stroke="#000000" d="M943.8093,-251.6985C945.8568,-269.9265 944.8793,-299.1054 941,-324 939.5482,-333.3168 937.1757,-343.3573 934.2978,-352.2236"/>
<polygon fill="#000000" stroke="#000000" points="931.004,-351.0401 930.856,-361.6339 937.5781,-353.4446 931.004,-351.0401"/>
</g>
<!-- f64&#45;&gt;bf16 -->
<g id="edge50" class="edge">
<title>f64-&gt;bf16</title>
<path fill="none" stroke="#000000" d="M928.3711,-251.0801C921.0425,-260.9667 910.5545,-273.5128 900.8054,-284.1171"/>
<polygon fill="#000000" stroke="#000000" points="898.219,-281.7583 893.8929,-291.4297 903.3059,-286.567 898.219,-281.7583"/>
</g>
<!-- f64&#45;&gt;f32 -->
<g id="edge52" class="edge">
<title>f64-&gt;f32</title>
<path fill="none" stroke="#000000" d="M931.0843,-216.2022C930.2798,-208.1807 930.0571,-198.5231 930.4162,-189.5957"/>
<polygon fill="#000000" stroke="#000000" points="933.9097,-189.8099 931.105,-179.593 926.9262,-189.3289 933.9097,-189.8099"/>
</g>
<!-- f64&#45;&gt;f64 -->
<g id="edge53" class="edge">
<title>f64-&gt;f64</title>
<path fill="none" stroke="#000000" d="M956.895,-246.4321C969.688,-249.6753 982,-245.5313 982,-234 982,-225.6218 975.5006,-221.1433 967.0395,-220.5644"/>
<polygon fill="#000000" stroke="#000000" points="966.5019,-217.1004 956.895,-221.5679 967.191,-224.0665 966.5019,-217.1004"/>
</g>
</g>
</svg>