<?xml version="1.0" encoding="UTF-8" standalone="no"?>
<!DOCTYPE svg PUBLIC "-//W3C//DTD SVG 1.1//EN" "http://www.w3.org/Graphics/SVG/1.1/DTD/svg11.dtd">
<!-- Generated by graphviz version 2.40.1 (20161225.0304)
 -->
<!-- Title: G Pages: 1 -->
<svg width="1239pt" height="476pt" viewBox="0.00 0.00 1238.70 476.00" xmlns="http://www.w3.org/2000/svg" xmlns:xlink="http://www.w3.org/1999/xlink">
<g id="graph0" class="graph" transform="scale(1 1) rotate(0) translate(4 472)">
<title>G</title>
<polygon fill="#ffffff" stroke="transparent" points="-4,4 -4,-472 1234.6955,-472 1234.6955,4 -4,4"/>
<!-- AtomicNumber -->
<g id="node1" class="node">
<title>AtomicNumber</title>
<ellipse fill="none" stroke="#000000" cx="816.9549" cy="-90" rx="71.7892" ry="18"/>
<text text-anchor="middle" x="816.9549" y="-85.8" font-family="Times,serif" font-size="14.00" fill="#000000">AtomicNumber</text>
</g>
<!-- Atomic -->
<g id="node2" class="node">
<title>Atomic</title>
<ellipse fill="none" stroke="#000000" cx="743.9549" cy="-18" rx="40.005" ry="18"/>
<text text-anchor="middle" x="743.9549" y="-13.8" font-family="Times,serif" font-size="14.00" fill="#000000">Atomic</text>
</g>
<!-- AtomicNumber&#45;&gt;Atomic -->
<g id="edge1" class="edge">
<title>AtomicNumber-&gt;Atomic</title>
<path fill="none" stroke="#000000" d="M798.9099,-72.2022C789.6238,-63.0434 778.1751,-51.7514 768.1351,-41.849"/>
<polygon fill="#000000" stroke="#000000" points="770.3688,-39.1361 760.7913,-34.6058 765.4533,-44.1199 770.3688,-39.1361"/>
</g>
<!-- AtomicInteger -->
<g id="node3" class="node">
<title>AtomicInteger</title>
<ellipse fill="none" stroke="#000000" cx="1020.9549" cy="-162" rx="67.1927" ry="18"/>
<text text-anchor="middle" x="1020.9549" y="-157.8" font-family="Times,serif" font-size="14.00" fill="#000000">AtomicInteger</text>
</g>
<!-- AtomicInteger&#45;&gt;AtomicNumber -->
<g id="edge2" class="edge">
<title>AtomicInteger-&gt;AtomicNumber</title>
<path fill="none" stroke="#000000" d="M980.1627,-147.6028C947.9593,-136.2369 902.839,-120.312 868.1994,-108.0863"/>
<polygon fill="#000000" stroke="#000000" points="869.3215,-104.7708 858.7267,-104.743 866.9917,-111.3717 869.3215,-104.7708"/>
</g>
<!-- Integer -->
<g id="node4" class="node">
<title>Integer</title>
<ellipse fill="none" stroke="#000000" cx="785.9549" cy="-234" rx="38.2607" ry="18"/>
<text text-anchor="middle" x="785.9549" y="-229.8" font-family="Times,serif" font-size="14.00" fill="#000000">Integer</text>
</g>
<!-- Integer&#45;&gt;AtomicInteger -->
<g id="edge30" class="edge">
<title>Integer-&gt;AtomicInteger</title>
<path fill="none" stroke="#0000ff" d="M827.7362,-221.1989C866.5028,-209.3215 924.4247,-191.5752 966.7399,-178.6106"/>
<polygon fill="#0000ff" stroke="#0000ff" points="826.6739,-217.8637 818.1379,-224.1397 828.7245,-224.5566 826.6739,-217.8637"/>
<polygon fill="#0000ff" stroke="#0000ff" points="967.7917,-181.9489 976.3277,-175.673 965.7411,-175.256 967.7917,-181.9489"/>
</g>
<!-- Number -->
<g id="node5" class="node">
<title>Number</title>
<ellipse fill="none" stroke="#000000" cx="636.9549" cy="-162" rx="42.8577" ry="18"/>
<text text-anchor="middle" x="636.9549" y="-157.8" font-family="Times,serif" font-size="14.00" fill="#000000">Number</text>
</g>
<!-- Integer&#45;&gt;Number -->
<g id="edge3" class="edge">
<title>Integer-&gt;Number</title>
<path fill="none" stroke="#000000" d="M758.9721,-220.9613C735.37,-209.5563 700.8476,-192.8743 674.5417,-180.1628"/>
<polygon fill="#000000" stroke="#000000" points="675.784,-176.8759 665.2572,-175.6763 672.7383,-183.1786 675.784,-176.8759"/>
</g>
<!-- Number&#45;&gt;AtomicNumber -->
<g id="edge26" class="edge">
<title>Number-&gt;AtomicNumber</title>
<path fill="none" stroke="#0000ff" d="M677.7427,-145.6849C704.9721,-134.7931 740.8798,-120.43 769.4065,-109.0193"/>
<polygon fill="#0000ff" stroke="#0000ff" points="676.2934,-142.4949 668.3085,-149.4586 678.8931,-148.9943 676.2934,-142.4949"/>
<polygon fill="#0000ff" stroke="#0000ff" points="770.7897,-112.2357 778.7746,-105.2721 768.19,-105.7364 770.7897,-112.2357"/>
</g>
<!-- FiniteRangeNumber -->
<g id="node6" class="node">
<title>FiniteRangeNumber</title>
<ellipse fill="none" stroke="#000000" cx="493.9549" cy="-234" rx="89.7672" ry="18"/>
<text text-anchor="middle" x="493.9549" y="-229.8" font-family="Times,serif" font-size="14.00" fill="#000000">FiniteRangeNumber</text>
</g>
<!-- FiniteRangeNumber&#45;&gt;Number -->
<g id="edge4" class="edge">
<title>FiniteRangeNumber-&gt;Number</title>
<path fill="none" stroke="#000000" d="M527.482,-217.1192C549.2963,-206.1358 577.7539,-191.8075 600.1867,-180.5126"/>
<polygon fill="#000000" stroke="#000000" points="602.0372,-183.4996 609.3949,-175.8763 598.8892,-177.2474 602.0372,-183.4996"/>
</g>
<!-- AtomicFiniteRangeNumber -->
<g id="node7" class="node">
<title>AtomicFiniteRangeNumber</title>
<ellipse fill="none" stroke="#000000" cx="816.9549" cy="-162" rx="118.6993" ry="18"/>
<text text-anchor="middle" x="816.9549" y="-157.8" font-family="Times,serif" font-size="14.00" fill="#000000">AtomicFiniteRangeNumber</text>
</g>
<!-- AtomicFiniteRangeNumber&#45;&gt;AtomicNumber -->
<g id="edge5" class="edge">
<title>AtomicFiniteRangeNumber-&gt;AtomicNumber</title>
<path fill="none" stroke="#000000" d="M816.9549,-143.8314C816.9549,-136.131 816.9549,-126.9743 816.9549,-118.4166"/>
<polygon fill="#000000" stroke="#000000" points="820.455,-118.4132 816.9549,-108.4133 813.455,-118.4133 820.455,-118.4132"/>
</g>
<!-- Float -->
<g id="node8" class="node">
<title>Float</title>
<ellipse fill="none" stroke="#000000" cx="493.9549" cy="-306" rx="30.7751" ry="18"/>
<text text-anchor="middle" x="493.9549" y="-301.8" font-family="Times,serif" font-size="14.00" fill="#000000">Float</text>
</g>
<!-- Float&#45;&gt;FiniteRangeNumber -->
<g id="edge6" class="edge">
<title>Float-&gt;FiniteRangeNumber</title>
<path fill="none" stroke="#000000" d="M493.9549,-287.8314C493.9549,-280.131 493.9549,-270.9743 493.9549,-262.4166"/>
<polygon fill="#000000" stroke="#000000" points="497.455,-262.4132 493.9549,-252.4133 490.455,-262.4133 497.455,-262.4132"/>
</g>
<!-- UnsignedInt -->
<g id="node9" class="node">
<title>UnsignedInt</title>
<ellipse fill="none" stroke="#000000" cx="1088.9549" cy="-378" rx="58.5502" ry="18"/>
<text text-anchor="middle" x="1088.9549" y="-373.8" font-family="Times,serif" font-size="14.00" fill="#000000">UnsignedInt</text>
</g>
<!-- UnsignedInt&#45;&gt;Integer -->
<g id="edge7" class="edge">
<title>UnsignedInt-&gt;Integer</title>
<path fill="none" stroke="#000000" d="M1072.9291,-360.6201C1049.9697,-335.8761 1009.5296,-292.925 1000.9549,-288 972.4244,-271.6133 886.0973,-253.0273 831.9042,-242.4897"/>
<polygon fill="#000000" stroke="#000000" points="832.3319,-239.0078 821.8506,-240.5553 831.0092,-245.8818 832.3319,-239.0078"/>
</g>
<!-- Splat -->
<g id="node10" class="node">
<title>Splat</title>
<ellipse fill="none" stroke="#000000" cx="1078.9549" cy="-306" rx="30.7751" ry="18"/>
<text text-anchor="middle" x="1078.9549" y="-301.8" font-family="Times,serif" font-size="14.00" fill="#000000">Splat</text>
</g>
<!-- UnsignedInt&#45;&gt;Splat -->
<g id="edge8" class="edge">
<title>UnsignedInt-&gt;Splat</title>
<path fill="none" stroke="#000000" d="M1086.4314,-359.8314C1085.3619,-352.131 1084.0902,-342.9743 1082.9016,-334.4166"/>
<polygon fill="#000000" stroke="#000000" points="1086.3548,-333.8367 1081.5123,-324.4133 1079.4213,-334.7997 1086.3548,-333.8367"/>
</g>
<!-- SignedInt -->
<g id="node11" class="node">
<title>SignedInt</title>
<ellipse fill="none" stroke="#000000" cx="942.9549" cy="-306" rx="48.6752" ry="18"/>
<text text-anchor="middle" x="942.9549" y="-301.8" font-family="Times,serif" font-size="14.00" fill="#000000">SignedInt</text>
</g>
<!-- UnsignedInt&#45;&gt;SignedInt -->
<g id="edge34" class="edge">
<title>UnsignedInt-&gt;SignedInt</title>
<path fill="none" stroke="#0000ff" d="M1048.3575,-357.9794C1027.3999,-347.6442 1001.9722,-335.1044 981.3429,-324.9311"/>
<polygon fill="#0000ff" stroke="#0000ff" points="1047.1174,-361.2703 1057.6342,-362.5542 1050.2135,-354.9922 1047.1174,-361.2703"/>
<polygon fill="#0000ff" stroke="#0000ff" points="982.7522,-321.7237 972.2355,-320.4397 979.6561,-328.0018 982.7522,-321.7237"/>
</g>
<!-- NonZero -->
<g id="node27" class="node">
<title>NonZero</title>
<ellipse fill="none" stroke="#000000" cx="1112.9549" cy="-234" rx="45.7887" ry="18"/>
<text text-anchor="middle" x="1112.9549" y="-229.8" font-family="Times,serif" font-size="14.00" fill="#000000">NonZero</text>
</g>
<!-- UnsignedInt&#45;&gt;NonZero -->
<g id="edge35" class="edge">
<title>UnsignedInt-&gt;NonZero</title>
<path fill="none" stroke="#0000ff" d="M1107.2168,-351.4102C1112.0022,-343.0147 1116.5051,-333.4539 1118.9549,-324 1124.2087,-303.7248 1122.3349,-280.0687 1119.3472,-262.0989"/>
<polygon fill="#0000ff" stroke="#0000ff" points="1104.1977,-349.6389 1101.9971,-360.0027 1110.1804,-353.2732 1104.1977,-349.6389"/>
<polygon fill="#0000ff" stroke="#0000ff" points="1122.783,-261.4307 1117.5048,-252.2442 1115.9022,-262.7171 1122.783,-261.4307"/>
</g>
<!-- SignedInt&#45;&gt;Integer -->
<g id="edge9" class="edge">
<title>SignedInt-&gt;Integer</title>
<path fill="none" stroke="#000000" d="M912.311,-291.9468C886.6868,-280.1955 850.0615,-263.3992 822.8341,-250.9128"/>
<polygon fill="#000000" stroke="#000000" points="824.1776,-247.6784 813.6288,-246.6912 821.2596,-254.0412 824.1776,-247.6784"/>
</g>
<!-- SignedInt&#45;&gt;NonZero -->
<g id="edge36" class="edge">
<title>SignedInt-&gt;NonZero</title>
<path fill="none" stroke="#0000ff" d="M984.6769,-288.3295C1011.3327,-277.04 1045.7331,-262.4704 1072.1989,-251.2614"/>
<polygon fill="#0000ff" stroke="#0000ff" points="983.1739,-285.165 975.3307,-292.2879 985.9039,-291.6107 983.1739,-285.165"/>
<polygon fill="#0000ff" stroke="#0000ff" points="1073.7182,-254.4189 1081.5614,-247.2961 1070.9882,-247.9732 1073.7182,-254.4189"/>
</g>
<!-- AtomicUnsignedInt -->
<g id="node12" class="node">
<title>AtomicUnsignedInt</title>
<ellipse fill="none" stroke="#000000" cx="1142.9549" cy="-450" rx="87.982" ry="18"/>
<text text-anchor="middle" x="1142.9549" y="-445.8" font-family="Times,serif" font-size="14.00" fill="#000000">AtomicUnsignedInt</text>
</g>
<!-- AtomicUnsignedInt&#45;&gt;AtomicInteger -->
<g id="edge10" class="edge">
<title>AtomicUnsignedInt-&gt;AtomicInteger</title>
<path fill="none" stroke="#000000" d="M1152.2783,-431.878C1172.5289,-389.7159 1215.0742,-283.5071 1167.9549,-216 1157.4646,-200.9708 1117.2508,-186.7942 1081.5314,-176.7408"/>
<polygon fill="#000000" stroke="#000000" points="1082.174,-173.2878 1071.6043,-174.0172 1080.3219,-180.0384 1082.174,-173.2878"/>
</g>
<!-- AtomicUnsignedInt&#45;&gt;UnsignedInt -->
<g id="edge28" class="edge">
<title>AtomicUnsignedInt-&gt;UnsignedInt</title>
<path fill="none" stroke="#0000ff" d="M1123.3913,-423.9152C1118.4273,-417.2965 1113.0995,-410.1929 1108.1538,-403.5986"/>
<polygon fill="#0000ff" stroke="#0000ff" points="1120.8065,-426.3022 1129.6065,-432.2022 1126.4065,-422.1022 1120.8065,-426.3022"/>
<polygon fill="#0000ff" stroke="#0000ff" points="1110.9497,-401.493 1102.1496,-395.593 1105.3497,-405.6931 1110.9497,-401.493"/>
</g>
<!-- AtomicSignedInt -->
<g id="node13" class="node">
<title>AtomicSignedInt</title>
<ellipse fill="none" stroke="#000000" cx="971.9549" cy="-234" rx="77.6071" ry="18"/>
<text text-anchor="middle" x="971.9549" y="-229.8" font-family="Times,serif" font-size="14.00" fill="#000000">AtomicSignedInt</text>
</g>
<!-- AtomicSignedInt&#45;&gt;AtomicInteger -->
<g id="edge11" class="edge">
<title>AtomicSignedInt-&gt;AtomicInteger</title>
<path fill="none" stroke="#000000" d="M984.0672,-216.2022C989.78,-207.8079 996.7123,-197.6218 1003.0182,-188.3558"/>
<polygon fill="#000000" stroke="#000000" points="1006.0792,-190.0789 1008.812,-179.8425 1000.2922,-186.1405 1006.0792,-190.0789"/>
</g>
<!-- AtomicFloat -->
<g id="node14" class="node">
<title>AtomicFloat</title>
<ellipse fill="none" stroke="#000000" cx="493.9549" cy="-378" rx="59.707" ry="18"/>
<text text-anchor="middle" x="493.9549" y="-373.8" font-family="Times,serif" font-size="14.00" fill="#000000">AtomicFloat</text>
</g>
<!-- AtomicFloat&#45;&gt;AtomicFiniteRangeNumber -->
<g id="edge12" class="edge">
<title>AtomicFloat-&gt;AtomicFiniteRangeNumber</title>
<path fill="none" stroke="#000000" d="M537.9325,-365.6234C546.2029,-363.5536 554.8105,-361.5717 562.9549,-360 625.4185,-347.9458 804.8949,-371.7281 846.9549,-324 880.112,-286.3745 853.7789,-224.2975 833.8909,-188.9114"/>
<polygon fill="#000000" stroke="#000000" points="836.8173,-186.9814 828.7607,-180.1009 830.7681,-190.5038 836.8173,-186.9814"/>
</g>
<!-- AtomicFloat&#45;&gt;Float -->
<g id="edge27" class="edge">
<title>AtomicFloat-&gt;Float</title>
<path fill="none" stroke="#0000ff" d="M493.9549,-349.5726C493.9549,-344.6792 493.9549,-339.5904 493.9549,-334.6901"/>
<polygon fill="#0000ff" stroke="#0000ff" points="490.455,-349.8313 493.9549,-359.8314 497.455,-349.8314 490.455,-349.8313"/>
<polygon fill="#0000ff" stroke="#0000ff" points="497.455,-334.4132 493.9549,-324.4133 490.455,-334.4133 497.455,-334.4132"/>
</g>
<!-- FastRange -->
<g id="node15" class="node">
<title>FastRange</title>
<ellipse fill="none" stroke="#000000" cx="785.9549" cy="-306" rx="51.6035" ry="18"/>
<text text-anchor="middle" x="785.9549" y="-301.8" font-family="Times,serif" font-size="14.00" fill="#000000">FastRange</text>
</g>
<!-- FastRange&#45;&gt;Integer -->
<g id="edge13" class="edge">
<title>FastRange-&gt;Integer</title>
<path fill="none" stroke="#000000" d="M785.9549,-287.8314C785.9549,-280.131 785.9549,-270.9743 785.9549,-262.4166"/>
<polygon fill="#000000" stroke="#000000" points="789.455,-262.4132 785.9549,-252.4133 782.455,-262.4133 789.455,-262.4132"/>
</g>
<!-- ToBytes -->
<g id="node16" class="node">
<title>ToBytes</title>
<ellipse fill="none" stroke="#000000" cx="169.9549" cy="-234" rx="43.5194" ry="18"/>
<text text-anchor="middle" x="169.9549" y="-229.8" font-family="Times,serif" font-size="14.00" fill="#000000">ToBytes</text>
</g>
<!-- AsBytes -->
<g id="node17" class="node">
<title>AsBytes</title>
<ellipse fill="none" stroke="#000000" cx="111.9549" cy="-162" rx="43.5175" ry="18"/>
<text text-anchor="middle" x="111.9549" y="-157.8" font-family="Times,serif" font-size="14.00" fill="#000000">AsBytes</text>
</g>
<!-- ToBytes&#45;&gt;AsBytes -->
<g id="edge14" class="edge">
<title>ToBytes-&gt;AsBytes</title>
<path fill="none" stroke="#000000" d="M155.9147,-216.5708C148.7904,-207.7269 140.0075,-196.8239 132.1698,-187.0945"/>
<polygon fill="#000000" stroke="#000000" points="134.8647,-184.8606 125.8658,-179.2687 129.4134,-189.2519 134.8647,-184.8606"/>
</g>
<!-- FromBytes -->
<g id="node18" class="node">
<title>FromBytes</title>
<ellipse fill="none" stroke="#000000" cx="53.9549" cy="-234" rx="53.9098" ry="18"/>
<text text-anchor="middle" x="53.9549" y="-229.8" font-family="Times,serif" font-size="14.00" fill="#000000">FromBytes</text>
</g>
<!-- FromBytes&#45;&gt;AsBytes -->
<g id="edge15" class="edge">
<title>FromBytes-&gt;AsBytes</title>
<path fill="none" stroke="#000000" d="M67.995,-216.5708C75.1193,-207.7269 83.9023,-196.8239 91.7399,-187.0945"/>
<polygon fill="#000000" stroke="#000000" points="94.4963,-189.2519 98.044,-179.2687 89.045,-184.8606 94.4963,-189.2519"/>
</g>
<!-- DoubleType -->
<g id="node19" class="node">
<title>DoubleType</title>
<ellipse fill="none" stroke="#000000" cx="264.9549" cy="-378" rx="59.1141" ry="18"/>
<text text-anchor="middle" x="264.9549" y="-373.8" font-family="Times,serif" font-size="14.00" fill="#000000">DoubleType</text>
</g>
<!-- DoubleType&#45;&gt;Integer -->
<g id="edge16" class="edge">
<title>DoubleType-&gt;Integer</title>
<path fill="none" stroke="#000000" d="M310.6552,-366.4113C341.2291,-357.4904 381.6286,-343.3885 413.9549,-324 434.466,-311.6979 432.3875,-298.3392 453.9549,-288 503.2794,-264.3541 658.206,-246.3979 737.7628,-238.4669"/>
<polygon fill="#000000" stroke="#000000" points="738.3969,-241.9215 748.0064,-237.4597 737.7119,-234.9551 738.3969,-241.9215"/>
</g>
<!-- DoubleType&#45;&gt;FiniteRangeNumber -->
<g id="edge17" class="edge">
<title>DoubleType-&gt;FiniteRangeNumber</title>
<path fill="none" stroke="#000000" d="M300.7875,-363.6329C323.636,-353.8137 353.4477,-339.757 377.9549,-324 398.9199,-310.5204 401.3714,-303.4183 420.9549,-288 434.0619,-277.6807 448.8063,-266.6658 461.5949,-257.2935"/>
<polygon fill="#000000" stroke="#000000" points="463.6636,-260.1168 469.6796,-251.3956 459.5381,-254.4617 463.6636,-260.1168"/>
</g>
<!-- DoubleType&#45;&gt;ToBytes -->
<g id="edge18" class="edge">
<title>DoubleType-&gt;ToBytes</title>
<path fill="none" stroke="#000000" d="M217.4899,-367.0805C178.5691,-357.0521 128.0002,-341.1774 115.9549,-324 100.4628,-301.9074 120.9617,-275.2596 140.9976,-256.7186"/>
<polygon fill="#000000" stroke="#000000" points="143.3912,-259.2744 148.5779,-250.036 138.7621,-254.0235 143.3912,-259.2744"/>
</g>
<!-- DoubleType&#45;&gt;FromBytes -->
<g id="edge19" class="edge">
<title>DoubleType-&gt;FromBytes</title>
<path fill="none" stroke="#000000" d="M212.0188,-369.62C178.941,-362.1892 137.0624,-348.5444 106.9549,-324 86.8761,-307.6313 72.7018,-281.5033 64.0951,-261.6062"/>
<polygon fill="#000000" stroke="#000000" points="67.2418,-260.055 60.2078,-252.1321 60.7657,-262.7122 67.2418,-260.055"/>
</g>
<!-- DowncastableFrom -->
<g id="node20" class="node">
<title>DowncastableFrom</title>
<ellipse fill="none" stroke="#000000" cx="629.9549" cy="-306" rx="86.8165" ry="18"/>
<text text-anchor="middle" x="629.9549" y="-301.8" font-family="Times,serif" font-size="14.00" fill="#000000">DowncastableFrom</text>
</g>
<!-- DoubleType&#45;&gt;DowncastableFrom -->
<g id="edge20" class="edge">
<title>DoubleType-&gt;DowncastableFrom</title>
<path fill="none" stroke="#000000" d="M314.9412,-368.1397C377.5026,-355.7988 485.1397,-334.5663 556.9287,-320.4052"/>
<polygon fill="#000000" stroke="#000000" points="557.6786,-323.8248 566.8121,-318.4556 556.3238,-316.9571 557.6786,-323.8248"/>
</g>
<!-- HalfType -->
<g id="node21" class="node">
<title>HalfType</title>
<ellipse fill="none" stroke="#000000" cx="172.9549" cy="-306" rx="48.0723" ry="18"/>
<text text-anchor="middle" x="172.9549" y="-301.8" font-family="Times,serif" font-size="14.00" fill="#000000">HalfType</text>
</g>
<!-- DoubleType&#45;&gt;HalfType -->
<g id="edge37" class="edge">
<title>DoubleType-&gt;HalfType</title>
<path fill="none" stroke="#0000ff" d="M235.111,-354.644C224.5142,-346.3508 212.6069,-337.0321 202.0716,-328.787"/>
<polygon fill="#0000ff" stroke="#0000ff" points="233.12,-357.5302 243.1522,-360.937 237.4342,-352.0176 233.12,-357.5302"/>
<polygon fill="#0000ff" stroke="#0000ff" points="204,-325.8518 193.9678,-322.4449 199.6858,-331.3643 204,-325.8518"/>
</g>
<!-- HalfType&#45;&gt;Integer -->
<g id="edge21" class="edge">
<title>HalfType-&gt;Integer</title>
<path fill="none" stroke="#000000" d="M208.2283,-293.6022C215.3504,-291.4569 222.8374,-289.4528 229.9549,-288 242.3724,-285.4654 605.4015,-251.0488 738.0356,-238.5202"/>
<polygon fill="#000000" stroke="#000000" points="738.6663,-241.9763 748.2929,-237.5515 738.0081,-235.0073 738.6663,-241.9763"/>
</g>
<!-- HalfType&#45;&gt;FiniteRangeNumber -->
<g id="edge22" class="edge">
<title>HalfType-&gt;FiniteRangeNumber</title>
<path fill="none" stroke="#000000" d="M208.9748,-294.0023C215.9007,-291.8726 223.1242,-289.772 229.9549,-288 292.0657,-271.8875 363.4052,-257.5392 416.2546,-247.69"/>
<polygon fill="#000000" stroke="#000000" points="417.0393,-251.1043 426.2351,-245.8424 415.7651,-244.2212 417.0393,-251.1043"/>
</g>
<!-- HalfType&#45;&gt;ToBytes -->
<g id="edge23" class="edge">
<title>HalfType-&gt;ToBytes</title>
<path fill="none" stroke="#000000" d="M172.1978,-287.8314C171.877,-280.131 171.4955,-270.9743 171.1389,-262.4166"/>
<polygon fill="#000000" stroke="#000000" points="174.6355,-262.2589 170.7221,-252.4133 167.6415,-262.5503 174.6355,-262.2589"/>
</g>
<!-- HalfType&#45;&gt;FromBytes -->
<g id="edge24" class="edge">
<title>HalfType-&gt;FromBytes</title>
<path fill="none" stroke="#000000" d="M147.4264,-290.5542C130.3291,-280.2096 107.6038,-266.4598 88.8421,-255.1082"/>
<polygon fill="#000000" stroke="#000000" points="90.6322,-252.1006 80.2645,-249.9184 87.0085,-258.0897 90.6322,-252.1006"/>
</g>
<!-- UpcastableFrom -->
<g id="node22" class="node">
<title>UpcastableFrom</title>
<ellipse fill="none" stroke="#000000" cx="306.9549" cy="-234" rx="74.7168" ry="18"/>
<text text-anchor="middle" x="306.9549" y="-229.8" font-family="Times,serif" font-size="14.00" fill="#000000">UpcastableFrom</text>
</g>
<!-- HalfType&#45;&gt;UpcastableFrom -->
<g id="edge25" class="edge">
<title>HalfType-&gt;UpcastableFrom</title>
<path fill="none" stroke="#000000" d="M200.7198,-291.0816C219.9037,-280.7738 245.7137,-266.9057 267.0895,-255.4202"/>
<polygon fill="#000000" stroke="#000000" points="268.7946,-258.4773 275.9469,-250.661 265.4813,-252.3111 268.7946,-258.4773"/>
</g>
<!-- AtomicSsignedInt -->
<g id="node23" class="node">
<title>AtomicSsignedInt</title>
<ellipse fill="none" stroke="#000000" cx="930.9549" cy="-378" rx="81.1187" ry="18"/>
<text text-anchor="middle" x="930.9549" y="-373.8" font-family="Times,serif" font-size="14.00" fill="#000000">AtomicSsignedInt</text>
</g>
<!-- AtomicSsignedInt&#45;&gt;SignedInt -->
<g id="edge29" class="edge">
<title>AtomicSsignedInt-&gt;SignedInt</title>
<path fill="none" stroke="#0000ff" d="M935.6458,-349.8545C936.4914,-344.781 937.3734,-339.4887 938.2202,-334.4078"/>
<polygon fill="#0000ff" stroke="#0000ff" points="932.1747,-349.392 933.983,-359.8314 939.0794,-350.5428 932.1747,-349.392"/>
<polygon fill="#0000ff" stroke="#0000ff" points="941.6943,-334.8526 939.886,-324.4133 934.7895,-333.7018 941.6943,-334.8526"/>
</g>
<!-- UpcastableTo -->
<g id="node24" class="node">
<title>UpcastableTo</title>
<ellipse fill="none" stroke="#000000" cx="303.9549" cy="-306" rx="64.8254" ry="18"/>
<text text-anchor="middle" x="303.9549" y="-301.8" font-family="Times,serif" font-size="14.00" fill="#000000">UpcastableTo</text>
</g>
<!-- UpcastableTo&#45;&gt;UpcastableFrom -->
<g id="edge31" class="edge">
<title>UpcastableTo-&gt;UpcastableFrom</title>
<path fill="none" stroke="#0000ff" d="M305.1393,-277.5726C305.3432,-272.6792 305.5553,-267.5904 305.7594,-262.6901"/>
<polygon fill="#0000ff" stroke="#0000ff" points="301.6313,-277.6943 304.7119,-287.8314 308.6253,-277.9858 301.6313,-277.6943"/>
<polygon fill="#0000ff" stroke="#0000ff" points="309.2682,-262.5503 306.1876,-252.4133 302.2743,-262.2589 309.2682,-262.5503"/>
</g>
<!-- DowncastableTo -->
<g id="node25" class="node">
<title>DowncastableTo</title>
<ellipse fill="none" stroke="#000000" cx="647.9549" cy="-378" rx="76.4246" ry="18"/>
<text text-anchor="middle" x="647.9549" y="-373.8" font-family="Times,serif" font-size="14.00" fill="#000000">DowncastableTo</text>
</g>
<!-- DowncastableTo&#45;&gt;DowncastableFrom -->
<g id="edge32" class="edge">
<title>DowncastableTo-&gt;DowncastableFrom</title>
<path fill="none" stroke="#0000ff" d="M640.9185,-349.8545C639.6501,-344.781 638.327,-339.4887 637.0568,-334.4078"/>
<polygon fill="#0000ff" stroke="#0000ff" points="637.5918,-350.9788 643.4127,-359.8314 644.3828,-349.281 637.5918,-350.9788"/>
<polygon fill="#0000ff" stroke="#0000ff" points="640.3791,-333.2658 634.5582,-324.4133 633.5881,-334.9636 640.3791,-333.2658"/>
</g>
<!-- IntoAtomic -->
<g id="node26" class="node">
<title>IntoAtomic</title>
<ellipse fill="none" stroke="#000000" cx="671.9549" cy="-90" rx="55.6159" ry="18"/>
<text text-anchor="middle" x="671.9549" y="-85.8" font-family="Times,serif" font-size="14.00" fill="#000000">IntoAtomic</text>
</g>
<!-- IntoAtomic&#45;&gt;Atomic -->
<g id="edge33" class="edge">
<title>IntoAtomic-&gt;Atomic</title>
<path fill="none" stroke="#0000ff" d="M696.4593,-65.4956C704.0475,-57.9074 712.397,-49.5578 719.9509,-42.0039"/>
<polygon fill="#0000ff" stroke="#0000ff" points="693.9803,-63.0248 689.3841,-72.5708 698.93,-67.9746 693.9803,-63.0248"/>
<polygon fill="#0000ff" stroke="#0000ff" points="722.5857,-44.3189 727.182,-34.7729 717.636,-39.3691 722.5857,-44.3189"/>
</g>
</g>
</svg>