<?xml version="1.0" encoding="UTF-8" standalone="no"?><!DOCTYPE svg PUBLIC "-//W3C//DTD SVG 1.1//EN" "http://www.w3.org/Graphics/SVG/1.1/DTD/svg11.dtd"><!-- Generated by graphviz version 2.40.1 (20161225.0304)
 --><!-- Title: G Pages: 1 --><svg xmlns="http://www.w3.org/2000/svg" xmlns:xlink="http://www.w3.org/1999/xlink" width="256pt" height="260pt" viewBox="0.00 0.00 255.84 260.00">
<g id="graph0" class="graph" transform="scale(1 1) rotate(0) translate(4 256)">
<title>G</title>
<polygon fill="#ffffff" stroke="transparent" points="-4,4 -4,-256 251.837,-256 251.837,4 -4,4"/>
<!-- Float -->
<g id="node1" class="node">
<title>Float</title>
<ellipse fill="none" stroke="#000000" cx="45.9894" cy="-90" rx="30.7751" ry="18"/>
<text text-anchor="middle" x="45.9894" y="-85.8" font-family="Times,serif" font-size="14.00" fill="#000000">Float</text>
</g>
<!-- Number -->
<g id="node2" class="node">
<title>Number</title>
<ellipse fill="none" stroke="#000000" cx="88.9894" cy="-18" rx="42.8577" ry="18"/>
<text text-anchor="middle" x="88.9894" y="-13.8" font-family="Times,serif" font-size="14.00" fill="#000000">Number</text>
</g>
<!-- Float&#45;&gt;Number -->
<g id="edge1" class="edge">
<title>Float-&gt;Number</title>
<path fill="none" stroke="#000000" d="M56.1798,-72.937C61.2614,-64.4284 67.5212,-53.9468 73.2061,-44.4279"/>
<polygon fill="#000000" stroke="#000000" points="76.3006,-46.0725 78.4231,-35.6924 70.2908,-42.4833 76.3006,-46.0725"/>
</g>
<!-- Integer -->
<g id="node3" class="node">
<title>Integer</title>
<ellipse fill="none" stroke="#000000" cx="132.9894" cy="-90" rx="38.2607" ry="18"/>
<text text-anchor="middle" x="132.9894" y="-85.8" font-family="Times,serif" font-size="14.00" fill="#000000">Integer</text>
</g>
<!-- Integer&#45;&gt;Number -->
<g id="edge2" class="edge">
<title>Integer-&gt;Number</title>
<path fill="none" stroke="#000000" d="M122.3383,-72.5708C117.1344,-64.0553 110.7638,-53.6308 104.9901,-44.183"/>
<polygon fill="#000000" stroke="#000000" points="107.8961,-42.226 99.695,-35.5182 101.9231,-45.8762 107.8961,-42.226"/>
</g>
<!-- Word -->
<g id="node4" class="node">
<title>Word</title>
<ellipse fill="none" stroke="#000000" cx="76.9894" cy="-162" rx="33.0469" ry="18"/>
<text text-anchor="middle" x="76.9894" y="-157.8" font-family="Times,serif" font-size="14.00" fill="#000000">Word</text>
</g>
<!-- Word&#45;&gt;Integer -->
<g id="edge3" class="edge">
<title>Word-&gt;Integer</title>
<path fill="none" stroke="#000000" d="M89.9777,-145.3008C96.9447,-136.3433 105.6721,-125.1223 113.4414,-115.1331"/>
<polygon fill="#000000" stroke="#000000" points="116.306,-117.151 119.6827,-107.1086 110.7805,-112.8534 116.306,-117.151"/>
</g>
<!-- SignedWord -->
<g id="node5" class="node">
<title>SignedWord</title>
<ellipse fill="none" stroke="#000000" cx="187.9894" cy="-162" rx="59.6955" ry="18"/>
<text text-anchor="middle" x="187.9894" y="-157.8" font-family="Times,serif" font-size="14.00" fill="#000000">SignedWord</text>
</g>
<!-- SignedWord&#45;&gt;Integer -->
<g id="edge4" class="edge">
<title>SignedWord-&gt;Integer</title>
<path fill="none" stroke="#000000" d="M174.3939,-144.2022C167.7018,-135.4416 159.5188,-124.7293 152.1999,-115.1482"/>
<polygon fill="#000000" stroke="#000000" points="154.9016,-112.9193 146.0498,-107.0972 149.3389,-117.1686 154.9016,-112.9193"/>
</g>
<!-- AtomicWord -->
<g id="node6" class="node">
<title>AtomicWord</title>
<ellipse fill="none" stroke="#000000" cx="61.9894" cy="-234" rx="61.9789" ry="18"/>
<text text-anchor="middle" x="61.9894" y="-229.8" font-family="Times,serif" font-size="14.00" fill="#000000">AtomicWord</text>
</g>
<!-- AtomicWord&#45;&gt;Word -->
<g id="edge5" class="edge">
<title>AtomicWord-&gt;Word</title>
<path fill="none" stroke="#000000" d="M65.7746,-215.8314C67.4214,-207.9266 69.3879,-198.4872 71.211,-189.7365"/>
<polygon fill="#000000" stroke="#000000" points="74.6443,-190.4171 73.2575,-179.9134 67.7914,-188.9894 74.6443,-190.4171"/>
</g>
<!-- NonZero -->
<g id="node7" class="node">
<title>NonZero</title>
<ellipse fill="none" stroke="#000000" cx="187.9894" cy="-234" rx="45.7887" ry="18"/>
<text text-anchor="middle" x="187.9894" y="-229.8" font-family="Times,serif" font-size="14.00" fill="#000000">NonZero</text>
</g>
<!-- NonZero&#45;&gt;Word -->
<g id="edge6" class="edge">
<title>NonZero-&gt;Word</title>
<path fill="none" stroke="#000000" d="M164.1772,-218.5542C147.4255,-207.6883 124.8817,-193.0653 106.9147,-181.4109"/>
<polygon fill="#000000" stroke="#000000" points="108.8019,-178.4633 98.5075,-175.9577 104.9925,-184.336 108.8019,-178.4633"/>
</g>
<!-- NonZero&#45;&gt;SignedWord -->
<g id="edge7" class="edge">
<title>NonZero-&gt;SignedWord</title>
<path fill="none" stroke="#000000" d="M187.9894,-215.8314C187.9894,-208.131 187.9894,-198.9743 187.9894,-190.4166"/>
<polygon fill="#000000" stroke="#000000" points="191.4895,-190.4132 187.9894,-180.4133 184.4895,-190.4133 191.4895,-190.4132"/>
</g>
</g>
</svg>