<?xml version="1.0" encoding="UTF-8" standalone="no"?><!DOCTYPE svg PUBLIC "-//W3C//DTD SVG 1.1//EN" "http://www.w3.org/Graphics/SVG/1.1/DTD/svg11.dtd"><!-- Generated by graphviz version 2.40.1 (20161225.0304)
 --><!-- Title: G Pages: 1 --><svg xmlns="http://www.w3.org/2000/svg" xmlns:xlink="http://www.w3.org/1999/xlink" width="282pt" height="404pt" viewBox="0.00 0.00 282.45 404.00">
<g id="graph0" class="graph" transform="scale(1 1) rotate(0) translate(4 400)">
<title>G</title>
<polygon fill="#ffffff" stroke="transparent" points="-4,4 -4,-400 278.4452,-400 278.4452,4 -4,4"/>
<!-- Atomic -->
<g id="node1" class="node">
<title>Atomic</title>
<ellipse fill="none" stroke="#000000" cx="55.5579" cy="-90" rx="40.005" ry="18"/>
<text text-anchor="middle" x="55.5579" y="-85.8" font-family="Times,serif" font-size="14.00" fill="#000000">Atomic</text>
</g>
<!-- IntoAtomic -->
<g id="node2" class="node">
<title>IntoAtomic</title>
<ellipse fill="none" stroke="#000000" cx="55.5579" cy="-18" rx="55.6159" ry="18"/>
<text text-anchor="middle" x="55.5579" y="-13.8" font-family="Times,serif" font-size="14.00" fill="#000000">IntoAtomic</text>
</g>
<!-- Atomic&#45;&gt;IntoAtomic -->
<g id="edge1" class="edge">
<title>Atomic-&gt;IntoAtomic</title>
<path fill="none" stroke="#000000" d="M49.6055,-71.8314C48.8436,-64.0125 48.6275,-54.6923 48.9575,-46.0221"/>
<polygon fill="#000000" stroke="#000000" points="52.4583,-46.1239 49.6306,-35.9134 45.4738,-45.6587 52.4583,-46.1239"/>
</g>
<!-- AtomicNumber -->
<g id="node3" class="node">
<title>AtomicNumber</title>
<ellipse fill="none" stroke="#000000" cx="200.5579" cy="-18" rx="71.7892" ry="18"/>
<text text-anchor="middle" x="200.5579" y="-13.8" font-family="Times,serif" font-size="14.00" fill="#000000">AtomicNumber</text>
</g>
<!-- Atomic&#45;&gt;AtomicNumber -->
<g id="edge3" class="edge">
<title>Atomic-&gt;AtomicNumber</title>
<path fill="none" stroke="#000000" d="M82.4915,-76.6261C103.9877,-65.9521 134.4717,-50.8152 159.0795,-38.5962"/>
<polygon fill="#000000" stroke="#000000" points="160.7919,-41.6537 168.1919,-34.0714 157.6787,-35.384 160.7919,-41.6537"/>
</g>
<!-- IntoAtomic&#45;&gt;Atomic -->
<g id="edge2" class="edge">
<title>IntoAtomic-&gt;Atomic</title>
<path fill="none" stroke="#000000" d="M61.4852,-35.9134C62.2591,-43.6993 62.487,-53.01 62.169,-61.6941"/>
<polygon fill="#000000" stroke="#000000" points="58.6662,-61.6254 61.5103,-71.8314 65.6514,-62.0794 58.6662,-61.6254"/>
</g>
<!-- Number -->
<g id="node4" class="node">
<title>Number</title>
<ellipse fill="none" stroke="#000000" cx="200.5579" cy="-90" rx="42.8577" ry="18"/>
<text text-anchor="middle" x="200.5579" y="-85.8" font-family="Times,serif" font-size="14.00" fill="#000000">Number</text>
</g>
<!-- Number&#45;&gt;AtomicNumber -->
<g id="edge4" class="edge">
<title>Number-&gt;AtomicNumber</title>
<path fill="none" stroke="#000000" d="M200.5579,-71.8314C200.5579,-64.131 200.5579,-54.9743 200.5579,-46.4166"/>
<polygon fill="#000000" stroke="#000000" points="204.058,-46.4132 200.5579,-36.4133 197.058,-46.4133 204.058,-46.4132"/>
</g>
<!-- NonZero -->
<g id="node5" class="node">
<title>NonZero</title>
<ellipse fill="none" stroke="#000000" cx="112.5579" cy="-378" rx="45.7887" ry="18"/>
<text text-anchor="middle" x="112.5579" y="-373.8" font-family="Times,serif" font-size="14.00" fill="#000000">NonZero</text>
</g>
<!-- UnsignedInt -->
<g id="node6" class="node">
<title>UnsignedInt</title>
<ellipse fill="none" stroke="#000000" cx="143.5579" cy="-306" rx="33.0469" ry="18"/>
<text text-anchor="middle" x="143.5579" y="-301.8" font-family="Times,serif" font-size="14.00" fill="#000000">UnsignedInt</text>
</g>
<!-- NonZero&#45;&gt;UnsignedInt -->
<g id="edge5" class="edge">
<title>NonZero-&gt;UnsignedInt</title>
<path fill="none" stroke="#000000" d="M120.2208,-360.2022C123.7496,-352.0064 128.0138,-342.1024 131.9267,-333.0145"/>
<polygon fill="#000000" stroke="#000000" points="135.2432,-334.162 135.9831,-323.593 128.8138,-331.3938 135.2432,-334.162"/>
</g>
<!-- SignedInt -->
<g id="node7" class="node">
<title>SignedInt</title>
<ellipse fill="none" stroke="#000000" cx="112.5579" cy="-234" rx="59.6955" ry="18"/>
<text text-anchor="middle" x="112.5579" y="-229.8" font-family="Times,serif" font-size="14.00" fill="#000000">SignedInt</text>
</g>
<!-- NonZero&#45;&gt;SignedInt -->
<g id="edge6" class="edge">
<title>NonZero-&gt;SignedInt</title>
<path fill="none" stroke="#000000" d="M107.8645,-359.6463C105.4508,-349.2631 102.7671,-335.9943 101.5579,-324 99.953,-308.0807 99.953,-303.9193 101.5579,-288 102.4082,-279.5665 103.9873,-270.5029 105.6891,-262.2554"/>
<polygon fill="#000000" stroke="#000000" points="109.137,-262.8719 107.8645,-252.3537 102.3001,-261.3697 109.137,-262.8719"/>
</g>
<!-- UnsignedInt&#45;&gt;SignedInt -->
<g id="edge9" class="edge">
<title>UnsignedInt-&gt;SignedInt</title>
<path fill="none" stroke="#000000" d="M130.5672,-289.3008C126.1551,-281.1248 121.5596,-271.0631 117.9251,-261.7735"/>
<polygon fill="#000000" stroke="#000000" points="121.1216,-260.3222 114.4127,-252.1222 114.5437,-262.7162 121.1216,-260.3222"/>
</g>
<!-- Integer -->
<g id="node8" class="node">
<title>Integer</title>
<ellipse fill="none" stroke="#000000" cx="156.5579" cy="-162" rx="38.2607" ry="18"/>
<text text-anchor="middle" x="156.5579" y="-157.8" font-family="Times,serif" font-size="14.00" fill="#000000">Integer</text>
</g>
<!-- UnsignedInt&#45;&gt;Integer -->
<g id="edge7" class="edge">
<title>UnsignedInt-&gt;Integer</title>
<path fill="none" stroke="#000000" d="M158.8438,-289.9581C167.331,-279.9108 177.06,-266.2077 181.5579,-252 188.2481,-230.8676 180.6669,-206.6441 172.147,-188.6549"/>
<polygon fill="#000000" stroke="#000000" points="175.0665,-186.6761 167.4018,-179.3615 168.8321,-189.8593 175.0665,-186.6761"/>
</g>
<!-- SignedInt&#45;&gt;UnsignedInt -->
<g id="edge10" class="edge">
<title>SignedInt-&gt;UnsignedInt</title>
<path fill="none" stroke="#000000" d="M126.1979,-251.9134C130.4147,-259.8704 134.747,-269.42 138.2061,-278.2657"/>
<polygon fill="#000000" stroke="#000000" points="134.9785,-279.6315 141.6877,-287.8314 141.5563,-277.2373 134.9785,-279.6315"/>
</g>
<!-- SignedInt&#45;&gt;Integer -->
<g id="edge8" class="edge">
<title>SignedInt-&gt;Integer</title>
<path fill="none" stroke="#000000" d="M123.4343,-216.2022C128.6413,-207.6817 134.9765,-197.315 140.7066,-187.9385"/>
<polygon fill="#000000" stroke="#000000" points="143.7304,-189.7025 145.9585,-179.3446 137.7574,-186.0523 143.7304,-189.7025"/>
</g>
<!-- Integer&#45;&gt;Number -->
<g id="edge12" class="edge">
<title>Integer-&gt;Number</title>
<path fill="none" stroke="#000000" d="M167.2091,-144.5708C172.413,-136.0553 178.7836,-125.6308 184.5572,-116.183"/>
<polygon fill="#000000" stroke="#000000" points="187.6243,-117.8762 189.8523,-107.5182 181.6513,-114.226 187.6243,-117.8762"/>
</g>
<!-- Float -->
<g id="node9" class="node">
<title>Float</title>
<ellipse fill="none" stroke="#000000" cx="243.5579" cy="-162" rx="30.7751" ry="18"/>
<text text-anchor="middle" x="243.5579" y="-157.8" font-family="Times,serif" font-size="14.00" fill="#000000">Float</text>
</g>
<!-- Float&#45;&gt;Number -->
<g id="edge11" class="edge">
<title>Float-&gt;Number</title>
<path fill="none" stroke="#000000" d="M233.3675,-144.937C228.286,-136.4284 222.0261,-125.9468 216.3413,-116.4279"/>
<polygon fill="#000000" stroke="#000000" points="219.2566,-114.4833 211.1242,-107.6924 213.2468,-118.0725 219.2566,-114.4833"/>
</g>
</g>
</svg>