<?xml version="1.0" encoding="UTF-8" standalone="no"?><!DOCTYPE svg PUBLIC "-//W3C//DTD SVG 1.1//EN" "http://www.w3.org/Graphics/SVG/1.1/DTD/svg11.dtd"><!-- Generated by graphviz version 2.40.1 (20161225.0304)
 --><!-- Title: G Pages: 1 --><svg xmlns="http://www.w3.org/2000/svg" xmlns:xlink="http://www.w3.org/1999/xlink" width="802pt" height="404pt" viewBox="0.00 0.00 802.00 404.00">
<g id="graph0" class="graph" transform="scale(1 1) rotate(0) translate(4 400)">
<title>G</title>
<polygon fill="#ffffff" stroke="transparent" points="-4,4 -4,-400 798,-400 798,4 -4,4"/>
<!-- u8 -->
<g id="node1" class="node">
<title>u8</title>
<ellipse fill="none" stroke="#000000" cx="132" cy="-18" rx="27" ry="18"/>
<text text-anchor="middle" x="132" y="-13.8" font-family="Times,serif" font-size="14.00" fill="#000000">u8</text>
</g>
<!-- u8&#45;&gt;u8 -->
<g id="edge1" class="edge">
<title>u8-&gt;u8</title>
<path fill="none" stroke="#000000" d="M151.895,-30.4321C164.688,-33.6753 177,-29.5313 177,-18 177,-9.6218 170.5006,-5.1433 162.0395,-4.5644"/>
<polygon fill="#000000" stroke="#000000" points="161.5019,-1.1004 151.895,-5.5679 162.191,-8.0665 161.5019,-1.1004"/>
</g>
<!-- u16 -->
<g id="node2" class="node">
<title>u16</title>
<ellipse fill="none" stroke="#000000" cx="132" cy="-90" rx="27" ry="18"/>
<text text-anchor="middle" x="132" y="-85.8" font-family="Times,serif" font-size="14.00" fill="#000000">u16</text>
</g>
<!-- u16&#45;&gt;u8 -->
<g id="edge2" class="edge">
<title>u16-&gt;u8</title>
<path fill="none" stroke="#000000" d="M132,-71.8314C132,-64.131 132,-54.9743 132,-46.4166"/>
<polygon fill="#000000" stroke="#000000" points="135.5001,-46.4132 132,-36.4133 128.5001,-46.4133 135.5001,-46.4132"/>
</g>
<!-- u16&#45;&gt;u16 -->
<g id="edge6" class="edge">
<title>u16-&gt;u16</title>
<path fill="none" stroke="#000000" d="M151.895,-102.4321C164.688,-105.6753 177,-101.5313 177,-90 177,-81.6218 170.5006,-77.1433 162.0395,-76.5644"/>
<polygon fill="#000000" stroke="#000000" points="161.5019,-73.1004 151.895,-77.5679 162.191,-80.0665 161.5019,-73.1004"/>
</g>
<!-- u32 -->
<g id="node3" class="node">
<title>u32</title>
<ellipse fill="none" stroke="#000000" cx="207" cy="-162" rx="27" ry="18"/>
<text text-anchor="middle" x="207" y="-157.8" font-family="Times,serif" font-size="14.00" fill="#000000">u32</text>
</g>
<!-- u32&#45;&gt;u8 -->
<g id="edge3" class="edge">
<title>u32-&gt;u8</title>
<path fill="none" stroke="#000000" d="M205.693,-143.6973C203.6831,-124.7247 198.628,-94.7187 186,-72 178.9166,-59.2564 167.9543,-47.4968 157.7527,-38.2273"/>
<polygon fill="#000000" stroke="#000000" points="160.0222,-35.5626 150.1766,-31.6492 155.4329,-40.8483 160.0222,-35.5626"/>
</g>
<!-- u32&#45;&gt;u16 -->
<g id="edge7" class="edge">
<title>u32-&gt;u16</title>
<path fill="none" stroke="#000000" d="M191.46,-147.0816C180.901,-136.945 166.7556,-123.3654 154.9108,-111.9944"/>
<polygon fill="#000000" stroke="#000000" points="157.1579,-109.2998 147.5201,-104.8993 152.3102,-114.3495 157.1579,-109.2998"/>
</g>
<!-- u32&#45;&gt;u32 -->
<g id="edge10" class="edge">
<title>u32-&gt;u32</title>
<path fill="none" stroke="#000000" d="M226.895,-174.4321C239.688,-177.6753 252,-173.5313 252,-162 252,-153.6218 245.5006,-149.1433 237.0395,-148.5644"/>
<polygon fill="#000000" stroke="#000000" points="236.5019,-145.1004 226.895,-149.5679 237.191,-152.0665 236.5019,-145.1004"/>
</g>
<!-- u64 -->
<g id="node4" class="node">
<title>u64</title>
<ellipse fill="none" stroke="#000000" cx="120" cy="-306" rx="27" ry="18"/>
<text text-anchor="middle" x="120" y="-301.8" font-family="Times,serif" font-size="14.00" fill="#000000">u64</text>
</g>
<!-- u64&#45;&gt;u8 -->
<g id="edge4" class="edge">
<title>u64-&gt;u8</title>
<path fill="none" stroke="#000000" d="M113.5589,-288.2315C100.154,-248.5282 72.3907,-149.9762 96,-72 99.2661,-61.2127 105.4764,-50.6108 111.8313,-41.6963"/>
<polygon fill="#000000" stroke="#000000" points="114.6285,-43.8001 117.8771,-33.7156 109.0487,-39.5732 114.6285,-43.8001"/>
</g>
<!-- u64&#45;&gt;u16 -->
<g id="edge8" class="edge">
<title>u64-&gt;u16</title>
<path fill="none" stroke="#000000" d="M121.0025,-287.9555C123.0892,-250.3938 127.9137,-163.5541 130.4216,-118.4103"/>
<polygon fill="#000000" stroke="#000000" points="133.9318,-118.3238 130.9919,-108.1451 126.9425,-117.9355 133.9318,-118.3238"/>
</g>
<!-- u64&#45;&gt;u32 -->
<g id="edge11" class="edge">
<title>u64-&gt;u32</title>
<path fill="none" stroke="#000000" d="M129.2262,-288.867C139.1748,-270.5997 155.6547,-240.9293 171,-216 176.9359,-206.3568 183.7594,-195.9627 189.8588,-186.8934"/>
<polygon fill="#000000" stroke="#000000" points="192.9415,-188.5835 195.6571,-178.3426 187.1479,-184.6548 192.9415,-188.5835"/>
</g>
<!-- u64&#45;&gt;u64 -->
<g id="edge13" class="edge">
<title>u64-&gt;u64</title>
<path fill="none" stroke="#000000" d="M139.895,-318.4321C152.688,-321.6753 165,-317.5313 165,-306 165,-297.6218 158.5006,-293.1433 150.0395,-292.5644"/>
<polygon fill="#000000" stroke="#000000" points="149.5019,-289.1004 139.895,-293.5679 150.191,-296.0665 149.5019,-289.1004"/>
</g>
<!-- usize -->
<g id="node6" class="node">
<title>usize</title>
<ellipse fill="none" stroke="#000000" cx="211" cy="-234" rx="30.7558" ry="18"/>
<text text-anchor="middle" x="211" y="-229.8" font-family="Times,serif" font-size="14.00" fill="#000000">usize</text>
</g>
<!-- u64&#45;&gt;usize -->
<g id="edge20" class="edge">
<title>u64-&gt;usize</title>
<path fill="none" stroke="#000000" d="M137.5457,-292.1177C150.8805,-281.5671 169.4453,-266.8785 184.5745,-254.9081"/>
<polygon fill="#000000" stroke="#000000" points="186.9006,-257.5308 192.5711,-248.5811 182.5572,-252.0412 186.9006,-257.5308"/>
</g>
<!-- u128 -->
<g id="node5" class="node">
<title>u128</title>
<ellipse fill="none" stroke="#000000" cx="120" cy="-378" rx="30.2015" ry="18"/>
<text text-anchor="middle" x="120" y="-373.8" font-family="Times,serif" font-size="14.00" fill="#000000">u128</text>
</g>
<!-- u128&#45;&gt;u8 -->
<g id="edge5" class="edge">
<title>u128-&gt;u8</title>
<path fill="none" stroke="#000000" d="M98.2689,-365.3424C63.6882,-343.3798 0,-294.6921 0,-234 0,-234 0,-234 0,-162 0,-102.3454 62.3186,-56.6846 101.3172,-33.9508"/>
<polygon fill="#000000" stroke="#000000" points="103.2185,-36.8966 110.2029,-28.9298 99.7748,-30.8023 103.2185,-36.8966"/>
</g>
<!-- u128&#45;&gt;u16 -->
<g id="edge9" class="edge">
<title>u128-&gt;u16</title>
<path fill="none" stroke="#000000" d="M105.5066,-361.821C97.4618,-351.7252 88.2446,-338.0191 84,-324 61.5989,-250.0142 97.2684,-159.7096 118.3188,-116.0765"/>
<polygon fill="#000000" stroke="#000000" points="121.51,-117.5191 122.8126,-107.0047 115.2374,-114.4119 121.51,-117.5191"/>
</g>
<!-- u128&#45;&gt;u32 -->
<g id="edge12" class="edge">
<title>u128-&gt;u32</title>
<path fill="none" stroke="#000000" d="M143.9927,-366.9507C179.8051,-348.8814 245.54,-309.2022 269,-252 275.0712,-237.1966 275.6281,-230.5626 269,-216 262.1777,-201.0107 248.9116,-188.5641 236.3957,-179.4127"/>
<polygon fill="#000000" stroke="#000000" points="238.1655,-176.3825 227.939,-173.6129 234.2063,-182.1553 238.1655,-176.3825"/>
</g>
<!-- u128&#45;&gt;u64 -->
<g id="edge14" class="edge">
<title>u128-&gt;u64</title>
<path fill="none" stroke="#000000" d="M120,-359.8314C120,-352.131 120,-342.9743 120,-334.4166"/>
<polygon fill="#000000" stroke="#000000" points="123.5001,-334.4132 120,-324.4133 116.5001,-334.4133 123.5001,-334.4132"/>
</g>
<!-- u128&#45;&gt;u128 -->
<g id="edge15" class="edge">
<title>u128-&gt;u128</title>
<path fill="none" stroke="#000000" d="M141.8789,-390.5475C155.4424,-393.5731 168.3504,-389.3906 168.3504,-378 168.3504,-369.546 161.2401,-365.0626 152.0288,-364.5497"/>
<polygon fill="#000000" stroke="#000000" points="151.5295,-361.0802 141.8789,-365.4525 152.1497,-368.0527 151.5295,-361.0802"/>
</g>
<!-- u128&#45;&gt;usize -->
<g id="edge21" class="edge">
<title>u128-&gt;usize</title>
<path fill="none" stroke="#000000" d="M137.8817,-363.4194C149.3869,-353.3081 164.0023,-339.0057 174,-324 186.8827,-304.6642 196.6023,-280.1284 202.8392,-261.5605"/>
<polygon fill="#000000" stroke="#000000" points="206.2067,-262.5215 205.9438,-251.9299 199.5444,-260.3737 206.2067,-262.5215"/>
</g>
<!-- usize&#45;&gt;u8 -->
<g id="edge16" class="edge">
<title>usize-&gt;u8</title>
<path fill="none" stroke="#000000" d="M229.9875,-219.7579C241.3469,-209.9886 254.7534,-195.9405 261,-180 266.8377,-165.103 266.0596,-159.1789 261,-144 244.3948,-94.1843 194.1714,-55.5571 161.5112,-34.8421"/>
<polygon fill="#000000" stroke="#000000" points="163.1575,-31.7455 152.8077,-29.48 159.4858,-37.7052 163.1575,-31.7455"/>
</g>
<!-- usize&#45;&gt;u16 -->
<g id="edge17" class="edge">
<title>usize-&gt;u16</title>
<path fill="none" stroke="#000000" d="M197.3535,-217.6546C189.0895,-207.2799 178.6952,-193.3399 171,-180 159.3693,-159.8377 149.0402,-135.5483 141.9387,-117.287"/>
<polygon fill="#000000" stroke="#000000" points="145.1661,-115.9273 138.3376,-107.8265 138.624,-118.4175 145.1661,-115.9273"/>
</g>
<!-- usize&#45;&gt;u32 -->
<g id="edge18" class="edge">
<title>usize-&gt;u32</title>
<path fill="none" stroke="#000000" d="M209.9906,-215.8314C209.5628,-208.131 209.0541,-198.9743 208.5787,-190.4166"/>
<polygon fill="#000000" stroke="#000000" points="212.0724,-190.2037 208.023,-180.4133 205.0831,-190.592 212.0724,-190.2037"/>
</g>
<!-- usize&#45;&gt;usize -->
<g id="edge19" class="edge">
<title>usize-&gt;usize</title>
<path fill="none" stroke="#000000" d="M233.3713,-246.6027C246.9895,-249.5212 259.8777,-245.3203 259.8777,-234 259.8777,-225.5982 252.7783,-221.1181 243.5502,-220.5596"/>
<polygon fill="#000000" stroke="#000000" points="243.0506,-217.0888 233.3713,-221.3973 243.6247,-224.0653 243.0506,-217.0888"/>
</g>
<!-- i8 -->
<g id="node7" class="node">
<title>i8</title>
<ellipse fill="none" stroke="#000000" cx="458" cy="-18" rx="27" ry="18"/>
<text text-anchor="middle" x="458" y="-13.8" font-family="Times,serif" font-size="14.00" fill="#000000">i8</text>
</g>
<!-- i8&#45;&gt;i8 -->
<g id="edge22" class="edge">
<title>i8-&gt;i8</title>
<path fill="none" stroke="#000000" d="M477.895,-30.4321C490.688,-33.6753 503,-29.5313 503,-18 503,-9.6218 496.5006,-5.1433 488.0395,-4.5644"/>
<polygon fill="#000000" stroke="#000000" points="487.5019,-1.1004 477.895,-5.5679 488.191,-8.0665 487.5019,-1.1004"/>
</g>
<!-- i16 -->
<g id="node8" class="node">
<title>i16</title>
<ellipse fill="none" stroke="#000000" cx="458" cy="-90" rx="27" ry="18"/>
<text text-anchor="middle" x="458" y="-85.8" font-family="Times,serif" font-size="14.00" fill="#000000">i16</text>
</g>
<!-- i16&#45;&gt;i8 -->
<g id="edge23" class="edge">
<title>i16-&gt;i8</title>
<path fill="none" stroke="#000000" d="M458,-71.8314C458,-64.131 458,-54.9743 458,-46.4166"/>
<polygon fill="#000000" stroke="#000000" points="461.5001,-46.4132 458,-36.4133 454.5001,-46.4133 461.5001,-46.4132"/>
</g>
<!-- i16&#45;&gt;i16 -->
<g id="edge27" class="edge">
<title>i16-&gt;i16</title>
<path fill="none" stroke="#000000" d="M477.895,-102.4321C490.688,-105.6753 503,-101.5313 503,-90 503,-81.6218 496.5006,-77.1433 488.0395,-76.5644"/>
<polygon fill="#000000" stroke="#000000" points="487.5019,-73.1004 477.895,-77.5679 488.191,-80.0665 487.5019,-73.1004"/>
</g>
<!-- i32 -->
<g id="node9" class="node">
<title>i32</title>
<ellipse fill="none" stroke="#000000" cx="533" cy="-162" rx="27" ry="18"/>
<text text-anchor="middle" x="533" y="-157.8" font-family="Times,serif" font-size="14.00" fill="#000000">i32</text>
</g>
<!-- i32&#45;&gt;i8 -->
<g id="edge24" class="edge">
<title>i32-&gt;i8</title>
<path fill="none" stroke="#000000" d="M531.693,-143.6973C529.6831,-124.7247 524.628,-94.7187 512,-72 504.9166,-59.2564 493.9543,-47.4968 483.7527,-38.2273"/>
<polygon fill="#000000" stroke="#000000" points="486.0222,-35.5626 476.1766,-31.6492 481.4329,-40.8483 486.0222,-35.5626"/>
</g>
<!-- i32&#45;&gt;i16 -->
<g id="edge28" class="edge">
<title>i32-&gt;i16</title>
<path fill="none" stroke="#000000" d="M517.46,-147.0816C506.901,-136.945 492.7556,-123.3654 480.9108,-111.9944"/>
<polygon fill="#000000" stroke="#000000" points="483.1579,-109.2998 473.5201,-104.8993 478.3102,-114.3495 483.1579,-109.2998"/>
</g>
<!-- i32&#45;&gt;i32 -->
<g id="edge31" class="edge">
<title>i32-&gt;i32</title>
<path fill="none" stroke="#000000" d="M552.895,-174.4321C565.688,-177.6753 578,-173.5313 578,-162 578,-153.6218 571.5006,-149.1433 563.0395,-148.5644"/>
<polygon fill="#000000" stroke="#000000" points="562.5019,-145.1004 552.895,-149.5679 563.191,-152.0665 562.5019,-145.1004"/>
</g>
<!-- i64 -->
<g id="node10" class="node">
<title>i64</title>
<ellipse fill="none" stroke="#000000" cx="446" cy="-306" rx="27" ry="18"/>
<text text-anchor="middle" x="446" y="-301.8" font-family="Times,serif" font-size="14.00" fill="#000000">i64</text>
</g>
<!-- i64&#45;&gt;i8 -->
<g id="edge25" class="edge">
<title>i64-&gt;i8</title>
<path fill="none" stroke="#000000" d="M439.5589,-288.2315C426.154,-248.5282 398.3907,-149.9762 422,-72 425.2661,-61.2127 431.4764,-50.6108 437.8313,-41.6963"/>
<polygon fill="#000000" stroke="#000000" points="440.6285,-43.8001 443.8771,-33.7156 435.0487,-39.5732 440.6285,-43.8001"/>
</g>
<!-- i64&#45;&gt;i16 -->
<g id="edge29" class="edge">
<title>i64-&gt;i16</title>
<path fill="none" stroke="#000000" d="M447.0025,-287.9555C449.0892,-250.3938 453.9137,-163.5541 456.4216,-118.4103"/>
<polygon fill="#000000" stroke="#000000" points="459.9318,-118.3238 456.9919,-108.1451 452.9425,-117.9355 459.9318,-118.3238"/>
</g>
<!-- i64&#45;&gt;i32 -->
<g id="edge32" class="edge">
<title>i64-&gt;i32</title>
<path fill="none" stroke="#000000" d="M455.2262,-288.867C465.1748,-270.5997 481.6547,-240.9293 497,-216 502.9359,-206.3568 509.7594,-195.9627 515.8588,-186.8934"/>
<polygon fill="#000000" stroke="#000000" points="518.9415,-188.5835 521.6571,-178.3426 513.1479,-184.6548 518.9415,-188.5835"/>
</g>
<!-- i64&#45;&gt;i64 -->
<g id="edge34" class="edge">
<title>i64-&gt;i64</title>
<path fill="none" stroke="#000000" d="M465.895,-318.4321C478.688,-321.6753 491,-317.5313 491,-306 491,-297.6218 484.5006,-293.1433 476.0395,-292.5644"/>
<polygon fill="#000000" stroke="#000000" points="475.5019,-289.1004 465.895,-293.5679 476.191,-296.0665 475.5019,-289.1004"/>
</g>
<!-- isize -->
<g id="node12" class="node">
<title>isize</title>
<ellipse fill="none" stroke="#000000" cx="535" cy="-234" rx="28.9676" ry="18"/>
<text text-anchor="middle" x="535" y="-229.8" font-family="Times,serif" font-size="14.00" fill="#000000">isize</text>
</g>
<!-- i64&#45;&gt;isize -->
<g id="edge41" class="edge">
<title>i64-&gt;isize</title>
<path fill="none" stroke="#000000" d="M463.5835,-291.7751C476.5419,-281.2919 494.378,-266.8628 508.9835,-255.0471"/>
<polygon fill="#000000" stroke="#000000" points="511.5752,-257.4524 517.1484,-248.4418 507.1725,-252.0102 511.5752,-257.4524"/>
</g>
<!-- i128 -->
<g id="node11" class="node">
<title>i128</title>
<ellipse fill="none" stroke="#000000" cx="446" cy="-378" rx="28.4127" ry="18"/>
<text text-anchor="middle" x="446" y="-373.8" font-family="Times,serif" font-size="14.00" fill="#000000">i128</text>
</g>
<!-- i128&#45;&gt;i8 -->
<g id="edge26" class="edge">
<title>i128-&gt;i8</title>
<path fill="none" stroke="#000000" d="M425.0976,-365.8671C390.7168,-344.1622 326,-295.1803 326,-234 326,-234 326,-234 326,-162 326,-102.3454 388.3186,-56.6846 427.3172,-33.9508"/>
<polygon fill="#000000" stroke="#000000" points="429.2185,-36.8966 436.2029,-28.9298 425.7748,-30.8023 429.2185,-36.8966"/>
</g>
<!-- i128&#45;&gt;i16 -->
<g id="edge30" class="edge">
<title>i128-&gt;i16</title>
<path fill="none" stroke="#000000" d="M431.8771,-362.2844C423.7465,-352.1468 414.3099,-338.2347 410,-324 387.5989,-250.0142 423.2684,-159.7096 444.3188,-116.0765"/>
<polygon fill="#000000" stroke="#000000" points="447.51,-117.5191 448.8126,-107.0047 441.2374,-114.4119 447.51,-117.5191"/>
</g>
<!-- i128&#45;&gt;i32 -->
<g id="edge33" class="edge">
<title>i128-&gt;i32</title>
<path fill="none" stroke="#000000" d="M468.8117,-367.0699C503.5759,-348.9018 568.1835,-308.7849 591,-252 596.9654,-237.1536 597.3858,-230.6704 591,-216 584.814,-201.7886 572.8405,-189.6277 561.3711,-180.4646"/>
<polygon fill="#000000" stroke="#000000" points="563.2988,-177.5354 553.1986,-174.3358 559.099,-183.1356 563.2988,-177.5354"/>
</g>
<!-- i128&#45;&gt;i64 -->
<g id="edge35" class="edge">
<title>i128-&gt;i64</title>
<path fill="none" stroke="#000000" d="M446,-359.8314C446,-352.131 446,-342.9743 446,-334.4166"/>
<polygon fill="#000000" stroke="#000000" points="449.5001,-334.4132 446,-324.4133 442.5001,-334.4133 449.5001,-334.4132"/>
</g>
<!-- i128&#45;&gt;i128 -->
<g id="edge36" class="edge">
<title>i128-&gt;i128</title>
<path fill="none" stroke="#000000" d="M466.428,-390.4321C479.5637,-393.6753 492.2056,-389.5313 492.2056,-378 492.2056,-369.5317 485.3878,-365.0474 476.5633,-364.5471"/>
<polygon fill="#000000" stroke="#000000" points="476.027,-361.0833 466.428,-365.5679 476.7285,-368.0481 476.027,-361.0833"/>
</g>
<!-- i128&#45;&gt;isize -->
<g id="edge42" class="edge">
<title>i128-&gt;isize</title>
<path fill="none" stroke="#000000" d="M463.7226,-363.7038C475.3067,-353.6074 490.074,-339.2118 500,-324 512.6,-304.6902 521.7634,-280.1525 527.5461,-261.5772"/>
<polygon fill="#000000" stroke="#000000" points="530.9157,-262.5249 530.4112,-251.9421 524.2061,-260.5296 530.9157,-262.5249"/>
</g>
<!-- isize&#45;&gt;i8 -->
<g id="edge37" class="edge">
<title>isize-&gt;i8</title>
<path fill="none" stroke="#000000" d="M554.2025,-220.3492C566.1188,-210.6305 580.3809,-196.4163 587,-180 592.9832,-165.1608 592.1266,-159.1564 587,-144 570.2209,-94.3937 520.2929,-55.8187 487.6996,-35.0384"/>
<polygon fill="#000000" stroke="#000000" points="489.3526,-31.9452 479.0083,-29.6548 485.6664,-37.8961 489.3526,-31.9452"/>
</g>
<!-- isize&#45;&gt;i16 -->
<g id="edge38" class="edge">
<title>isize-&gt;i16</title>
<path fill="none" stroke="#000000" d="M522.0996,-217.5551C514.2728,-207.143 504.401,-193.1985 497,-180 485.6155,-159.6976 475.2698,-135.4177 468.0991,-117.1957"/>
<polygon fill="#000000" stroke="#000000" points="471.3227,-115.8275 464.4557,-107.7594 464.7926,-118.3489 471.3227,-115.8275"/>
</g>
<!-- isize&#45;&gt;i32 -->
<g id="edge39" class="edge">
<title>isize-&gt;i32</title>
<path fill="none" stroke="#000000" d="M534.4953,-215.8314C534.2814,-208.131 534.0271,-198.9743 533.7894,-190.4166"/>
<polygon fill="#000000" stroke="#000000" points="537.2879,-190.3122 533.5115,-180.4133 530.2906,-190.5066 537.2879,-190.3122"/>
</g>
<!-- isize&#45;&gt;isize -->
<g id="edge40" class="edge">
<title>isize-&gt;isize</title>
<path fill="none" stroke="#000000" d="M556.147,-246.5475C569.2567,-249.5731 581.7329,-245.3906 581.7329,-234 581.7329,-225.635 575.0044,-221.1574 566.2377,-220.5672"/>
<polygon fill="#000000" stroke="#000000" points="565.8028,-217.0918 556.147,-221.4525 566.4146,-224.065 565.8028,-217.0918"/>
</g>
<!-- f16 -->
<g id="node13" class="node">
<title>f16</title>
<ellipse fill="none" stroke="#000000" cx="703" cy="-234" rx="27" ry="18"/>
<text text-anchor="middle" x="703" y="-229.8" font-family="Times,serif" font-size="14.00" fill="#000000">f16</text>
</g>
<!-- f16&#45;&gt;f16 -->
<g id="edge43" class="edge">
<title>f16-&gt;f16</title>
<path fill="none" stroke="#000000" d="M722.895,-246.4321C735.688,-249.6753 748,-245.5313 748,-234 748,-225.6218 741.5006,-221.1433 733.0395,-220.5644"/>
<polygon fill="#000000" stroke="#000000" points="732.5019,-217.1004 722.895,-221.5679 733.191,-224.0665 732.5019,-217.1004"/>
</g>
<!-- bf16 -->
<g id="node14" class="node">
<title>bf16</title>
<ellipse fill="none" stroke="#000000" cx="703" cy="-162" rx="28.9754" ry="18"/>
<text text-anchor="middle" x="703" y="-157.8" font-family="Times,serif" font-size="14.00" fill="#000000">bf16</text>
</g>
<!-- f16&#45;&gt;bf16 -->
<g id="edge48" class="edge">
<title>f16-&gt;bf16</title>
<path fill="none" stroke="#000000" d="M697.0843,-216.2022C696.2945,-208.3271 696.0655,-198.875 696.3971,-190.0852"/>
<polygon fill="#000000" stroke="#000000" points="699.9069,-190.0532 697.0798,-179.8425 692.9224,-189.5876 699.9069,-190.0532"/>
</g>
<!-- bf16&#45;&gt;f16 -->
<g id="edge44" class="edge">
<title>bf16-&gt;f16</title>
<path fill="none" stroke="#000000" d="M708.9202,-179.8425C709.7078,-187.7236 709.9348,-197.1774 709.601,-205.9647"/>
<polygon fill="#000000" stroke="#000000" points="706.0915,-205.9908 708.9157,-216.2022 713.0759,-206.4583 706.0915,-205.9908"/>
</g>
<!-- bf16&#45;&gt;bf16 -->
<g id="edge47" class="edge">
<title>bf16-&gt;bf16</title>
<path fill="none" stroke="#000000" d="M724.1487,-174.5475C737.2595,-177.5731 749.7367,-173.3906 749.7367,-162 749.7367,-153.635 743.0077,-149.1574 734.2403,-148.5672"/>
<polygon fill="#000000" stroke="#000000" points="733.8046,-145.0919 724.1487,-149.4525 734.4164,-152.0651 733.8046,-145.0919"/>
</g>
<!-- f32 -->
<g id="node15" class="node">
<title>f32</title>
<ellipse fill="none" stroke="#000000" cx="749" cy="-306" rx="27" ry="18"/>
<text text-anchor="middle" x="749" y="-301.8" font-family="Times,serif" font-size="14.00" fill="#000000">f32</text>
</g>
<!-- f32&#45;&gt;f16 -->
<g id="edge45" class="edge">
<title>f32-&gt;f16</title>
<path fill="none" stroke="#000000" d="M738.3311,-289.3008C732.6414,-280.3952 725.5223,-269.2524 719.1684,-259.307"/>
<polygon fill="#000000" stroke="#000000" points="721.9445,-257.1513 713.6111,-250.6087 716.0456,-260.92 721.9445,-257.1513"/>
</g>
<!-- f32&#45;&gt;bf16 -->
<g id="edge49" class="edge">
<title>f32-&gt;bf16</title>
<path fill="none" stroke="#000000" d="M755.2743,-288.3498C760.8661,-269.6504 766.7849,-239.6228 757,-216 751.4609,-202.6275 740.8256,-190.8399 730.448,-181.7175"/>
<polygon fill="#000000" stroke="#000000" points="732.5905,-178.9476 722.6511,-175.2788 728.1333,-184.3451 732.5905,-178.9476"/>
</g>
<!-- f32&#45;&gt;f32 -->
<g id="edge51" class="edge">
<title>f32-&gt;f32</title>
<path fill="none" stroke="#000000" d="M768.895,-318.4321C781.688,-321.6753 794,-317.5313 794,-306 794,-297.6218 787.5006,-293.1433 779.0395,-292.5644"/>
<polygon fill="#000000" stroke="#000000" points="778.5019,-289.1004 768.895,-293.5679 779.191,-296.0665 778.5019,-289.1004"/>
</g>
<!-- f64 -->
<g id="node16" class="node">
<title>f64</title>
<ellipse fill="none" stroke="#000000" cx="694" cy="-378" rx="27" ry="18"/>
<text text-anchor="middle" x="694" y="-373.8" font-family="Times,serif" font-size="14.00" fill="#000000">f64</text>
</g>
<!-- f64&#45;&gt;f16 -->
<g id="edge46" class="edge">
<title>f64-&gt;f16</title>
<path fill="none" stroke="#000000" d="M695.1399,-359.7623C696.6749,-335.201 699.422,-291.2474 701.2279,-262.3541"/>
<polygon fill="#000000" stroke="#000000" points="704.7387,-262.2885 701.8694,-252.0896 697.7523,-261.8518 704.7387,-262.2885"/>
</g>
<!-- f64&#45;&gt;bf16 -->
<g id="edge50" class="edge">
<title>f64-&gt;bf16</title>
<path fill="none" stroke="#000000" d="M686.0089,-360.6413C673.309,-330.6231 651.4663,-267.3043 667,-216 670.2661,-205.2127 676.4764,-194.6108 682.8313,-185.6963"/>
<polygon fill="#000000" stroke="#000000" points="685.6285,-187.8001 688.8771,-177.7156 680.0487,-183.5732 685.6285,-187.8001"/>
</g>
<!-- f64&#45;&gt;f32 -->
<g id="edge52" class="edge">
<title>f64-&gt;f32</title>
<path fill="none" stroke="#000000" d="M706.4804,-361.6621C713.5124,-352.4564 722.4347,-340.7764 730.2883,-330.4953"/>
<polygon fill="#000000" stroke="#000000" points="733.28,-332.3446 736.569,-322.2733 727.7172,-328.0953 733.28,-332.3446"/>
</g>
<!-- f64&#45;&gt;f64 -->
<g id="edge53" class="edge">
<title>f64-&gt;f64</title>
<path fill="none" stroke="#000000" d="M713.895,-390.4321C726.688,-393.6753 739,-389.5313 739,-378 739,-369.6218 732.5006,-365.1433 724.0395,-364.5644"/>
<polygon fill="#000000" stroke="#000000" points="723.5019,-361.1004 713.895,-365.5679 724.191,-368.0665 723.5019,-361.1004"/>
</g>
</g>
</svg>