<?xml version="1.0" encoding="UTF-8" standalone="no"?><!DOCTYPE svg PUBLIC "-//W3C//DTD SVG 1.1//EN" "http://www.w3.org/Graphics/SVG/1.1/DTD/svg11.dtd"><!-- Generated by graphviz version 2.40.1 (20161225.0304)
 --><!-- Title: G Pages: 1 --><svg xmlns="http://www.w3.org/2000/svg" xmlns:xlink="http://www.w3.org/1999/xlink" width="793pt" height="404pt" viewBox="0.00 0.00 793.00 404.00">
<g id="graph0" class="graph" transform="scale(1 1) rotate(0) translate(4 400)">
<title>G</title>
<polygon fill="#ffffff" stroke="transparent" points="-4,4 -4,-400 789,-400 789,4 -4,4"/>
<!-- u8 -->
<g id="node1" class="node">
<title>u8</title>
<ellipse fill="none" stroke="#000000" cx="119" cy="-378" rx="27" ry="18"/>
<text text-anchor="middle" x="119" y="-373.8" font-family="Times,serif" font-size="14.00" fill="#000000">u8</text>
</g>
<!-- u8&#45;&gt;u8 -->
<g id="edge1" class="edge">
<title>u8-&gt;u8</title>
<path fill="none" stroke="#000000" d="M138.895,-390.4321C151.688,-393.6753 164,-389.5313 164,-378 164,-369.6218 157.5006,-365.1433 149.0395,-364.5644"/>
<polygon fill="#000000" stroke="#000000" points="148.5019,-361.1004 138.895,-365.5679 149.191,-368.0665 148.5019,-361.1004"/>
</g>
<!-- u16 -->
<g id="node2" class="node">
<title>u16</title>
<ellipse fill="none" stroke="#000000" cx="119" cy="-306" rx="27" ry="18"/>
<text text-anchor="middle" x="119" y="-301.8" font-family="Times,serif" font-size="14.00" fill="#000000">u16</text>
</g>
<!-- u8&#45;&gt;u16 -->
<g id="edge2" class="edge">
<title>u8-&gt;u16</title>
<path fill="none" stroke="#000000" d="M119,-359.8314C119,-352.131 119,-342.9743 119,-334.4166"/>
<polygon fill="#000000" stroke="#000000" points="122.5001,-334.4132 119,-324.4133 115.5001,-334.4133 122.5001,-334.4132"/>
</g>
<!-- u32 -->
<g id="node3" class="node">
<title>u32</title>
<ellipse fill="none" stroke="#000000" cx="207" cy="-234" rx="27" ry="18"/>
<text text-anchor="middle" x="207" y="-229.8" font-family="Times,serif" font-size="14.00" fill="#000000">u32</text>
</g>
<!-- u8&#45;&gt;u32 -->
<g id="edge3" class="edge">
<title>u8-&gt;u32</title>
<path fill="none" stroke="#000000" d="M136.5168,-363.955C148.1594,-353.862 163.0759,-339.3711 173,-324 185.46,-304.7012 194.3452,-280.1627 199.9004,-261.5843"/>
<polygon fill="#000000" stroke="#000000" points="203.272,-262.5236 202.6456,-251.9473 196.5398,-260.6058 203.272,-262.5236"/>
</g>
<!-- u64 -->
<g id="node4" class="node">
<title>u64</title>
<ellipse fill="none" stroke="#000000" cx="134" cy="-90" rx="27" ry="18"/>
<text text-anchor="middle" x="134" y="-85.8" font-family="Times,serif" font-size="14.00" fill="#000000">u64</text>
</g>
<!-- u8&#45;&gt;u64 -->
<g id="edge4" class="edge">
<title>u8-&gt;u64</title>
<path fill="none" stroke="#000000" d="M104.8771,-362.2844C96.7465,-352.1468 87.3099,-338.2347 83,-324 78.3635,-308.6865 80.9886,-303.8731 83,-288 90.8725,-225.8751 112.1138,-155.3461 124.5601,-117.4979"/>
<polygon fill="#000000" stroke="#000000" points="127.9763,-118.3172 127.819,-107.7235 121.3357,-116.1031 127.9763,-118.3172"/>
</g>
<!-- u128 -->
<g id="node5" class="node">
<title>u128</title>
<ellipse fill="none" stroke="#000000" cx="134" cy="-18" rx="30.2015" ry="18"/>
<text text-anchor="middle" x="134" y="-13.8" font-family="Times,serif" font-size="14.00" fill="#000000">u128</text>
</g>
<!-- u8&#45;&gt;u128 -->
<g id="edge5" class="edge">
<title>u8-&gt;u128</title>
<path fill="none" stroke="#000000" d="M98.5432,-365.9962C64.5193,-344.3124 0,-295.134 0,-234 0,-234 0,-234 0,-162 0,-102.5964 61.8692,-57.4351 101.5283,-34.5883"/>
<polygon fill="#000000" stroke="#000000" points="103.3286,-37.5918 110.3519,-29.6594 99.9148,-31.4806 103.3286,-37.5918"/>
</g>
<!-- usize -->
<g id="node6" class="node">
<title>usize</title>
<ellipse fill="none" stroke="#000000" cx="211" cy="-162" rx="30.7558" ry="18"/>
<text text-anchor="middle" x="211" y="-157.8" font-family="Times,serif" font-size="14.00" fill="#000000">usize</text>
</g>
<!-- u8&#45;&gt;usize -->
<g id="edge16" class="edge">
<title>u8-&gt;usize</title>
<path fill="none" stroke="#000000" d="M140.9349,-367.2857C175.0498,-349.1494 239.1709,-308.7556 261,-252 266.7437,-237.0665 266.8377,-230.897 261,-216 256.1199,-203.5465 246.8696,-192.248 237.6396,-183.2425"/>
<polygon fill="#000000" stroke="#000000" points="239.7282,-180.4096 229.9875,-176.2421 235.0033,-185.5745 239.7282,-180.4096"/>
</g>
<!-- u16&#45;&gt;u16 -->
<g id="edge6" class="edge">
<title>u16-&gt;u16</title>
<path fill="none" stroke="#000000" d="M138.895,-318.4321C151.688,-321.6753 164,-317.5313 164,-306 164,-297.6218 157.5006,-293.1433 149.0395,-292.5644"/>
<polygon fill="#000000" stroke="#000000" points="148.5019,-289.1004 138.895,-293.5679 149.191,-296.0665 148.5019,-289.1004"/>
</g>
<!-- u16&#45;&gt;u32 -->
<g id="edge7" class="edge">
<title>u16-&gt;u32</title>
<path fill="none" stroke="#000000" d="M136.386,-291.7751C149.2825,-281.2234 167.0651,-266.674 181.5585,-254.8157"/>
<polygon fill="#000000" stroke="#000000" points="184.1269,-257.2366 189.6501,-248.1953 179.6942,-251.8189 184.1269,-257.2366"/>
</g>
<!-- u16&#45;&gt;u64 -->
<g id="edge8" class="edge">
<title>u16-&gt;u64</title>
<path fill="none" stroke="#000000" d="M120.2531,-287.9555C122.8671,-250.3144 128.9176,-163.1867 132.0469,-118.1246"/>
<polygon fill="#000000" stroke="#000000" points="135.5386,-118.3635 132.7399,-108.1451 128.5555,-117.8785 135.5386,-118.3635"/>
</g>
<!-- u16&#45;&gt;u128 -->
<g id="edge9" class="edge">
<title>u16-&gt;u128</title>
<path fill="none" stroke="#000000" d="M112.937,-288.2176C100.3448,-248.4862 74.4195,-149.8811 98,-72 101.1835,-61.4857 107.164,-51.1474 113.3492,-42.3763"/>
<polygon fill="#000000" stroke="#000000" points="116.2991,-44.2766 119.5066,-34.179 110.7022,-40.0725 116.2991,-44.2766"/>
</g>
<!-- u16&#45;&gt;usize -->
<g id="edge17" class="edge">
<title>u16-&gt;usize</title>
<path fill="none" stroke="#000000" d="M128.2125,-288.7335C138.1936,-270.3546 154.8622,-240.5921 171,-216 177.4029,-206.2427 184.9093,-195.8658 191.6792,-186.8433"/>
<polygon fill="#000000" stroke="#000000" points="194.6238,-188.7529 197.8842,-178.6722 189.049,-184.5195 194.6238,-188.7529"/>
</g>
<!-- u32&#45;&gt;u32 -->
<g id="edge10" class="edge">
<title>u32-&gt;u32</title>
<path fill="none" stroke="#000000" d="M226.895,-246.4321C239.688,-249.6753 252,-245.5313 252,-234 252,-225.6218 245.5006,-221.1433 237.0395,-220.5644"/>
<polygon fill="#000000" stroke="#000000" points="236.5019,-217.1004 226.895,-221.5679 237.191,-224.0665 236.5019,-217.1004"/>
</g>
<!-- u32&#45;&gt;u64 -->
<g id="edge11" class="edge">
<title>u32-&gt;u64</title>
<path fill="none" stroke="#000000" d="M194.7612,-217.5066C187.3397,-207.0763 177.9868,-193.1297 171,-180 160.1522,-159.6147 150.3403,-135.3405 143.5506,-117.1417"/>
<polygon fill="#000000" stroke="#000000" points="146.8259,-115.9074 140.102,-107.7196 140.2524,-118.3134 146.8259,-115.9074"/>
</g>
<!-- u32&#45;&gt;u128 -->
<g id="edge12" class="edge">
<title>u32-&gt;u128</title>
<path fill="none" stroke="#000000" d="M227.939,-222.3871C242.4456,-213.0452 260.6033,-198.4483 269,-180 275.6281,-165.4374 274.4468,-159.0443 269,-144 250.8662,-93.9135 199.4034,-55.7659 165.5136,-35.1583"/>
<polygon fill="#000000" stroke="#000000" points="167.275,-32.1338 156.8855,-30.0579 163.7128,-38.1597 167.275,-32.1338"/>
</g>
<!-- u32&#45;&gt;usize -->
<g id="edge18" class="edge">
<title>u32-&gt;usize</title>
<path fill="none" stroke="#000000" d="M208.0094,-215.8314C208.4372,-208.131 208.9459,-198.9743 209.4213,-190.4166"/>
<polygon fill="#000000" stroke="#000000" points="212.9169,-190.592 209.977,-180.4133 205.9276,-190.2037 212.9169,-190.592"/>
</g>
<!-- u64&#45;&gt;u64 -->
<g id="edge13" class="edge">
<title>u64-&gt;u64</title>
<path fill="none" stroke="#000000" d="M153.895,-102.4321C166.688,-105.6753 179,-101.5313 179,-90 179,-81.6218 172.5006,-77.1433 164.0395,-76.5644"/>
<polygon fill="#000000" stroke="#000000" points="163.5019,-73.1004 153.895,-77.5679 164.191,-80.0665 163.5019,-73.1004"/>
</g>
<!-- u64&#45;&gt;u128 -->
<g id="edge14" class="edge">
<title>u64-&gt;u128</title>
<path fill="none" stroke="#000000" d="M134,-71.8314C134,-64.131 134,-54.9743 134,-46.4166"/>
<polygon fill="#000000" stroke="#000000" points="137.5001,-46.4132 134,-36.4133 130.5001,-46.4133 137.5001,-46.4132"/>
</g>
<!-- u128&#45;&gt;u128 -->
<g id="edge15" class="edge">
<title>u128-&gt;u128</title>
<path fill="none" stroke="#000000" d="M155.8789,-30.5475C169.4424,-33.5731 182.3504,-29.3906 182.3504,-18 182.3504,-9.546 175.2401,-5.0626 166.0288,-4.5497"/>
<polygon fill="#000000" stroke="#000000" points="165.5295,-1.0802 155.8789,-5.4525 166.1497,-8.0527 165.5295,-1.0802"/>
</g>
<!-- usize&#45;&gt;u64 -->
<g id="edge20" class="edge">
<title>usize-&gt;u64</title>
<path fill="none" stroke="#000000" d="M194.2921,-146.3771C183.4797,-136.2667 169.2481,-122.9592 157.3269,-111.8122"/>
<polygon fill="#000000" stroke="#000000" points="159.5806,-109.1278 149.8859,-104.8543 154.7996,-114.2408 159.5806,-109.1278"/>
</g>
<!-- usize&#45;&gt;u128 -->
<g id="edge21" class="edge">
<title>usize-&gt;u128</title>
<path fill="none" stroke="#000000" d="M209.2048,-143.6902C206.707,-124.7118 200.9316,-94.7011 188,-72 181.0095,-59.7282 170.4867,-48.3194 160.5817,-39.1801"/>
<polygon fill="#000000" stroke="#000000" points="162.6657,-36.3514 152.8498,-32.364 158.0367,-41.6024 162.6657,-36.3514"/>
</g>
<!-- usize&#45;&gt;usize -->
<g id="edge19" class="edge">
<title>usize-&gt;usize</title>
<path fill="none" stroke="#000000" d="M233.3713,-174.6027C246.9895,-177.5212 259.8777,-173.3203 259.8777,-162 259.8777,-153.5982 252.7783,-149.1181 243.5502,-148.5596"/>
<polygon fill="#000000" stroke="#000000" points="243.0506,-145.0888 233.3713,-149.3973 243.6247,-152.0653 243.0506,-145.0888"/>
</g>
<!-- i8 -->
<g id="node7" class="node">
<title>i8</title>
<ellipse fill="none" stroke="#000000" cx="445" cy="-378" rx="27" ry="18"/>
<text text-anchor="middle" x="445" y="-373.8" font-family="Times,serif" font-size="14.00" fill="#000000">i8</text>
</g>
<!-- i8&#45;&gt;i8 -->
<g id="edge22" class="edge">
<title>i8-&gt;i8</title>
<path fill="none" stroke="#000000" d="M464.895,-390.4321C477.688,-393.6753 490,-389.5313 490,-378 490,-369.6218 483.5006,-365.1433 475.0395,-364.5644"/>
<polygon fill="#000000" stroke="#000000" points="474.5019,-361.1004 464.895,-365.5679 475.191,-368.0665 474.5019,-361.1004"/>
</g>
<!-- i16 -->
<g id="node8" class="node">
<title>i16</title>
<ellipse fill="none" stroke="#000000" cx="445" cy="-306" rx="27" ry="18"/>
<text text-anchor="middle" x="445" y="-301.8" font-family="Times,serif" font-size="14.00" fill="#000000">i16</text>
</g>
<!-- i8&#45;&gt;i16 -->
<g id="edge23" class="edge">
<title>i8-&gt;i16</title>
<path fill="none" stroke="#000000" d="M445,-359.8314C445,-352.131 445,-342.9743 445,-334.4166"/>
<polygon fill="#000000" stroke="#000000" points="448.5001,-334.4132 445,-324.4133 441.5001,-334.4133 448.5001,-334.4132"/>
</g>
<!-- i32 -->
<g id="node9" class="node">
<title>i32</title>
<ellipse fill="none" stroke="#000000" cx="533" cy="-234" rx="27" ry="18"/>
<text text-anchor="middle" x="533" y="-229.8" font-family="Times,serif" font-size="14.00" fill="#000000">i32</text>
</g>
<!-- i8&#45;&gt;i32 -->
<g id="edge24" class="edge">
<title>i8-&gt;i32</title>
<path fill="none" stroke="#000000" d="M462.5168,-363.955C474.1594,-353.862 489.0759,-339.3711 499,-324 511.46,-304.7012 520.3452,-280.1627 525.9004,-261.5843"/>
<polygon fill="#000000" stroke="#000000" points="529.272,-262.5236 528.6456,-251.9473 522.5398,-260.6058 529.272,-262.5236"/>
</g>
<!-- i64 -->
<g id="node10" class="node">
<title>i64</title>
<ellipse fill="none" stroke="#000000" cx="459" cy="-90" rx="27" ry="18"/>
<text text-anchor="middle" x="459" y="-85.8" font-family="Times,serif" font-size="14.00" fill="#000000">i64</text>
</g>
<!-- i8&#45;&gt;i64 -->
<g id="edge25" class="edge">
<title>i8-&gt;i64</title>
<path fill="none" stroke="#000000" d="M430.8771,-362.2844C422.7465,-352.1468 413.3099,-338.2347 409,-324 386.5605,-249.8872 423.3079,-159.6406 444.9471,-116.0484"/>
<polygon fill="#000000" stroke="#000000" points="448.1435,-117.4844 449.5655,-106.9854 441.9067,-114.3061 448.1435,-117.4844"/>
</g>
<!-- i128 -->
<g id="node11" class="node">
<title>i128</title>
<ellipse fill="none" stroke="#000000" cx="459" cy="-18" rx="28.4127" ry="18"/>
<text text-anchor="middle" x="459" y="-13.8" font-family="Times,serif" font-size="14.00" fill="#000000">i128</text>
</g>
<!-- i8&#45;&gt;i128 -->
<g id="edge26" class="edge">
<title>i8-&gt;i128</title>
<path fill="none" stroke="#000000" d="M424.5432,-365.9962C390.5193,-344.3124 326,-295.134 326,-234 326,-234 326,-234 326,-162 326,-102.4537 388.1315,-57.0354 427.4624,-34.2498"/>
<polygon fill="#000000" stroke="#000000" points="429.432,-37.158 436.4384,-29.2105 426.0052,-31.0541 429.432,-37.158"/>
</g>
<!-- isize -->
<g id="node12" class="node">
<title>isize</title>
<ellipse fill="none" stroke="#000000" cx="535" cy="-162" rx="28.9676" ry="18"/>
<text text-anchor="middle" x="535" y="-157.8" font-family="Times,serif" font-size="14.00" fill="#000000">isize</text>
</g>
<!-- i8&#45;&gt;isize -->
<g id="edge37" class="edge">
<title>i8-&gt;isize</title>
<path fill="none" stroke="#000000" d="M466.9349,-367.2857C501.0498,-349.1494 565.1709,-308.7556 587,-252 592.7437,-237.0665 592.9832,-230.8392 587,-216 581.7771,-203.0465 571.7955,-191.4641 561.9626,-182.3795"/>
<polygon fill="#000000" stroke="#000000" points="564.0507,-179.5575 554.2025,-175.6508 559.465,-184.8463 564.0507,-179.5575"/>
</g>
<!-- i16&#45;&gt;i16 -->
<g id="edge27" class="edge">
<title>i16-&gt;i16</title>
<path fill="none" stroke="#000000" d="M464.895,-318.4321C477.688,-321.6753 490,-317.5313 490,-306 490,-297.6218 483.5006,-293.1433 475.0395,-292.5644"/>
<polygon fill="#000000" stroke="#000000" points="474.5019,-289.1004 464.895,-293.5679 475.191,-296.0665 474.5019,-289.1004"/>
</g>
<!-- i16&#45;&gt;i32 -->
<g id="edge28" class="edge">
<title>i16-&gt;i32</title>
<path fill="none" stroke="#000000" d="M462.386,-291.7751C475.2825,-281.2234 493.0651,-266.674 507.5585,-254.8157"/>
<polygon fill="#000000" stroke="#000000" points="510.1269,-257.2366 515.6501,-248.1953 505.6942,-251.8189 510.1269,-257.2366"/>
</g>
<!-- i16&#45;&gt;i64 -->
<g id="edge29" class="edge">
<title>i16-&gt;i64</title>
<path fill="none" stroke="#000000" d="M446.1696,-287.9555C448.6093,-250.3144 454.2564,-163.1867 457.1771,-118.1246"/>
<polygon fill="#000000" stroke="#000000" points="460.6697,-118.3505 457.8239,-108.1451 453.6844,-117.8977 460.6697,-118.3505"/>
</g>
<!-- i16&#45;&gt;i128 -->
<g id="edge30" class="edge">
<title>i16-&gt;i128</title>
<path fill="none" stroke="#000000" d="M438.811,-288.222C425.9481,-248.4996 399.4103,-149.9114 423,-72 426.2661,-61.2127 432.4764,-50.6108 438.8313,-41.6963"/>
<polygon fill="#000000" stroke="#000000" points="441.6285,-43.8001 444.8771,-33.7156 436.0487,-39.5732 441.6285,-43.8001"/>
</g>
<!-- i16&#45;&gt;isize -->
<g id="edge38" class="edge">
<title>i16-&gt;isize</title>
<path fill="none" stroke="#000000" d="M454.3314,-288.8106C464.4119,-270.496 481.1627,-240.7866 497,-216 503.1742,-206.3369 510.3252,-195.9806 516.7471,-186.9481"/>
<polygon fill="#000000" stroke="#000000" points="519.6368,-188.9244 522.6249,-178.7597 513.9502,-184.8424 519.6368,-188.9244"/>
</g>
<!-- i32&#45;&gt;i32 -->
<g id="edge31" class="edge">
<title>i32-&gt;i32</title>
<path fill="none" stroke="#000000" d="M552.895,-246.4321C565.688,-249.6753 578,-245.5313 578,-234 578,-225.6218 571.5006,-221.1433 563.0395,-220.5644"/>
<polygon fill="#000000" stroke="#000000" points="562.5019,-217.1004 552.895,-221.5679 563.191,-224.0665 562.5019,-217.1004"/>
</g>
<!-- i32&#45;&gt;i64 -->
<g id="edge32" class="edge">
<title>i32-&gt;i64</title>
<path fill="none" stroke="#000000" d="M520.8049,-217.4832C513.3999,-207.0441 504.0489,-193.0964 497,-180 486.0126,-159.5859 475.925,-135.3136 468.9087,-117.123"/>
<polygon fill="#000000" stroke="#000000" points="472.1568,-115.8169 465.3406,-107.7058 465.6109,-118.2972 472.1568,-115.8169"/>
</g>
<!-- i32&#45;&gt;i128 -->
<g id="edge33" class="edge">
<title>i32-&gt;i128</title>
<path fill="none" stroke="#000000" d="M553.1986,-221.6642C566.6871,-212.1549 583.3126,-197.6607 591,-180 597.3858,-165.3296 596.2576,-159.1115 591,-144 573.6338,-94.0855 522.8507,-55.7205 489.5753,-35.0476"/>
<polygon fill="#000000" stroke="#000000" points="491.067,-31.8599 480.6966,-29.691 487.451,-37.8536 491.067,-31.8599"/>
</g>
<!-- i32&#45;&gt;isize -->
<g id="edge39" class="edge">
<title>i32-&gt;isize</title>
<path fill="none" stroke="#000000" d="M533.5047,-215.8314C533.7186,-208.131 533.9729,-198.9743 534.2106,-190.4166"/>
<polygon fill="#000000" stroke="#000000" points="537.7094,-190.5066 534.4885,-180.4133 530.7121,-190.3122 537.7094,-190.5066"/>
</g>
<!-- i64&#45;&gt;i64 -->
<g id="edge34" class="edge">
<title>i64-&gt;i64</title>
<path fill="none" stroke="#000000" d="M478.895,-102.4321C491.688,-105.6753 504,-101.5313 504,-90 504,-81.6218 497.5006,-77.1433 489.0395,-76.5644"/>
<polygon fill="#000000" stroke="#000000" points="488.5019,-73.1004 478.895,-77.5679 489.191,-80.0665 488.5019,-73.1004"/>
</g>
<!-- i64&#45;&gt;i128 -->
<g id="edge35" class="edge">
<title>i64-&gt;i128</title>
<path fill="none" stroke="#000000" d="M459,-71.8314C459,-64.131 459,-54.9743 459,-46.4166"/>
<polygon fill="#000000" stroke="#000000" points="462.5001,-46.4132 459,-36.4133 455.5001,-46.4133 462.5001,-46.4132"/>
</g>
<!-- i128&#45;&gt;i128 -->
<g id="edge36" class="edge">
<title>i128-&gt;i128</title>
<path fill="none" stroke="#000000" d="M479.428,-30.4321C492.5637,-33.6753 505.2056,-29.5313 505.2056,-18 505.2056,-9.5317 498.3878,-5.0474 489.5633,-4.5471"/>
<polygon fill="#000000" stroke="#000000" points="489.027,-1.0833 479.428,-5.5679 489.7285,-8.0481 489.027,-1.0833"/>
</g>
<!-- isize&#45;&gt;i64 -->
<g id="edge41" class="edge">
<title>isize-&gt;i64</title>
<path fill="none" stroke="#000000" d="M518.8824,-146.7307C508.1594,-136.5721 493.9101,-123.0727 482.0016,-111.791"/>
<polygon fill="#000000" stroke="#000000" points="484.2413,-109.0915 474.5746,-104.7549 479.4271,-114.1732 484.2413,-109.0915"/>
</g>
<!-- isize&#45;&gt;i128 -->
<g id="edge42" class="edge">
<title>isize-&gt;i128</title>
<path fill="none" stroke="#000000" d="M533.4487,-143.6933C531.1947,-124.7176 525.7792,-94.709 513,-72 505.9711,-59.5095 495.2495,-47.9389 485.2072,-38.7384"/>
<polygon fill="#000000" stroke="#000000" points="487.2143,-35.8441 477.3826,-31.8957 482.6062,-41.1134 487.2143,-35.8441"/>
</g>
<!-- isize&#45;&gt;isize -->
<g id="edge40" class="edge">
<title>isize-&gt;isize</title>
<path fill="none" stroke="#000000" d="M556.147,-174.5475C569.2567,-177.5731 581.7329,-173.3906 581.7329,-162 581.7329,-153.635 575.0044,-149.1574 566.2377,-148.5672"/>
<polygon fill="#000000" stroke="#000000" points="565.8028,-145.0918 556.147,-149.4525 566.4146,-152.065 565.8028,-145.0918"/>
</g>
<!-- f16 -->
<g id="node13" class="node">
<title>f16</title>
<ellipse fill="none" stroke="#000000" cx="709" cy="-378" rx="27" ry="18"/>
<text text-anchor="middle" x="709" y="-373.8" font-family="Times,serif" font-size="14.00" fill="#000000">f16</text>
</g>
<!-- f16&#45;&gt;f16 -->
<g id="edge43" class="edge">
<title>f16-&gt;f16</title>
<path fill="none" stroke="#000000" d="M728.895,-390.4321C741.688,-393.6753 754,-389.5313 754,-378 754,-369.6218 747.5006,-365.1433 739.0395,-364.5644"/>
<polygon fill="#000000" stroke="#000000" points="738.5019,-361.1004 728.895,-365.5679 739.191,-368.0665 738.5019,-361.1004"/>
</g>
<!-- bf16 -->
<g id="node14" class="node">
<title>bf16</title>
<ellipse fill="none" stroke="#000000" cx="709" cy="-306" rx="28.9754" ry="18"/>
<text text-anchor="middle" x="709" y="-301.8" font-family="Times,serif" font-size="14.00" fill="#000000">bf16</text>
</g>
<!-- f16&#45;&gt;bf16 -->
<g id="edge44" class="edge">
<title>f16-&gt;bf16</title>
<path fill="none" stroke="#000000" d="M703.0843,-360.2022C702.2945,-352.3271 702.0655,-342.875 702.3971,-334.0852"/>
<polygon fill="#000000" stroke="#000000" points="705.9069,-334.0532 703.0798,-323.8425 698.9224,-333.5876 705.9069,-334.0532"/>
</g>
<!-- f32 -->
<g id="node15" class="node">
<title>f32</title>
<ellipse fill="none" stroke="#000000" cx="667" cy="-234" rx="27" ry="18"/>
<text text-anchor="middle" x="667" y="-229.8" font-family="Times,serif" font-size="14.00" fill="#000000">f32</text>
</g>
<!-- f16&#45;&gt;f32 -->
<g id="edge45" class="edge">
<title>f16-&gt;f32</title>
<path fill="none" stroke="#000000" d="M694.3296,-362.3454C685.8367,-352.2307 675.8864,-338.3213 671,-324 664.2344,-304.171 663.454,-280.4508 664.2476,-262.3411"/>
<polygon fill="#000000" stroke="#000000" points="667.7546,-262.3361 664.8843,-252.1374 660.7682,-261.9 667.7546,-262.3361"/>
</g>
<!-- f64 -->
<g id="node16" class="node">
<title>f64</title>
<ellipse fill="none" stroke="#000000" cx="740" cy="-162" rx="27" ry="18"/>
<text text-anchor="middle" x="740" y="-157.8" font-family="Times,serif" font-size="14.00" fill="#000000">f64</text>
</g>
<!-- f16&#45;&gt;f64 -->
<g id="edge46" class="edge">
<title>f16-&gt;f64</title>
<path fill="none" stroke="#000000" d="M728.5193,-365.5052C741.5508,-355.921 757.6056,-341.4026 765,-324 784.0617,-279.1387 766.425,-221.7884 752.6643,-188.7432"/>
<polygon fill="#000000" stroke="#000000" points="755.7597,-187.0845 748.5631,-179.3089 749.34,-189.8752 755.7597,-187.0845"/>
</g>
<!-- bf16&#45;&gt;f16 -->
<g id="edge48" class="edge">
<title>bf16-&gt;f16</title>
<path fill="none" stroke="#000000" d="M714.9202,-323.8425C715.7078,-331.7236 715.9348,-341.1774 715.601,-349.9647"/>
<polygon fill="#000000" stroke="#000000" points="712.0915,-349.9908 714.9157,-360.2022 719.0759,-350.4583 712.0915,-349.9908"/>
</g>
<!-- bf16&#45;&gt;bf16 -->
<g id="edge47" class="edge">
<title>bf16-&gt;bf16</title>
<path fill="none" stroke="#000000" d="M730.1487,-318.5475C743.2595,-321.5731 755.7367,-317.3906 755.7367,-306 755.7367,-297.635 749.0077,-293.1574 740.2403,-292.5672"/>
<polygon fill="#000000" stroke="#000000" points="739.8046,-289.0919 730.1487,-293.4525 740.4164,-296.0651 739.8046,-289.0919"/>
</g>
<!-- bf16&#45;&gt;f32 -->
<g id="edge49" class="edge">
<title>bf16-&gt;f32</title>
<path fill="none" stroke="#000000" d="M699.0466,-288.937C693.9729,-280.2393 687.6966,-269.4799 682.047,-259.7948"/>
<polygon fill="#000000" stroke="#000000" points="684.944,-257.8148 676.882,-250.9405 678.8975,-261.3419 684.944,-257.8148"/>
</g>
<!-- bf16&#45;&gt;f64 -->
<g id="edge50" class="edge">
<title>bf16-&gt;f64</title>
<path fill="none" stroke="#000000" d="M713.0478,-288.0105C715.397,-277.514 718.397,-264.014 721,-252 725.5016,-231.2228 730.4593,-207.7169 734.1815,-189.9388"/>
<polygon fill="#000000" stroke="#000000" points="737.651,-190.4462 736.2708,-179.9417 730.799,-189.0142 737.651,-190.4462"/>
</g>
<!-- f32&#45;&gt;f32 -->
<g id="edge51" class="edge">
<title>f32-&gt;f32</title>
<path fill="none" stroke="#000000" d="M686.895,-246.4321C699.688,-249.6753 712,-245.5313 712,-234 712,-225.6218 705.5006,-221.1433 697.0395,-220.5644"/>
<polygon fill="#000000" stroke="#000000" points="696.5019,-217.1004 686.895,-221.5679 697.191,-224.0665 696.5019,-217.1004"/>
</g>
<!-- f32&#45;&gt;f64 -->
<g id="edge52" class="edge">
<title>f32-&gt;f64</title>
<path fill="none" stroke="#000000" d="M682.1256,-219.0816C692.3345,-209.0125 705.9878,-195.5463 717.4693,-184.2221"/>
<polygon fill="#000000" stroke="#000000" points="719.9806,-186.6611 724.6426,-177.147 715.0651,-181.6773 719.9806,-186.6611"/>
</g>
<!-- f64&#45;&gt;f64 -->
<g id="edge53" class="edge">
<title>f64-&gt;f64</title>
<path fill="none" stroke="#000000" d="M759.895,-174.4321C772.688,-177.6753 785,-173.5313 785,-162 785,-153.6218 778.5006,-149.1433 770.0395,-148.5644"/>
<polygon fill="#000000" stroke="#000000" points="769.5019,-145.1004 759.895,-149.5679 770.191,-152.0665 769.5019,-145.1004"/>
</g>
</g>
</svg>